RobotoSerifMicro-RegularWideItalic03ip.ufo
<glyph name="quotesingle" format="2">
  <advance width="278"/>
  <unicode hex="0027"/>
  <outline>
    <contour>
      <point x="321" y="769" type="line"/>
      <point x="305" y="675"/>
      <point x="271" y="613"/>
      <point x="245" y="467" type="curve"/>
      <point x="175" y="467" type="line"/>
      <point x="201" y="613"/>
      <point x="185" y="674"/>
      <point x="201" y="769" type="curve"/>
    </contour>
  </outline>
</glyph>
<glyph name="one" format="2">
  <advance width="680"/>
  <unicode hex="0031"/>
  <guideline x="432" y="60" angle="81" identifier="xAQCo3qmue"/>
  <outline>
    <contour>
      <point x="438" y="98" type="curve" smooth="yes"/>
      <point x="524" y="639" type="line"/>
      <point x="461" y="639" type="line"/>
      <point x="410" y="558"/>
      <point x="330" y="536"/>
      <point x="190" y="533" type="curve"/>
      <point x="178" y="461" type="line"/>
      <point x="309" y="461"/>
      <point x="420" y="501"/>
      <point x="451" y="585" type="curve"/>
      <point x="444" y="588"/>
      <point x="436" y="571"/>
      <point x="425" y="571" type="curve"/>
      <point x="350" y="98" type="line" smooth="yes"/>
      <point x="345" y="69"/>
      <point x="308" y="62"/>
      <point x="258" y="62" type="curve" smooth="yes"/>
      <point x="139" y="62" type="line"/>
      <point x="129" y="0" type="line"/>
      <point x="610" y="0" type="line"/>
      <point x="620" y="62" type="line"/>
      <point x="517" y="62" type="line" smooth="yes"/>
      <point x="468" y="62"/>
      <point x="433" y="69"/>
    </contour>
  </outline>
</glyph>
<glyph name="two" format="2">
  <advance width="680"/>
  <unicode hex="0032"/>
  <outline>
    <contour>
      <point x="416" y="64" type="line" smooth="yes"/>
      <point x="508" y="64"/>
      <point x="529" y="70"/>
      <point x="539" y="107" type="curve" smooth="yes"/>
      <point x="567" y="197" type="line"/>
      <point x="626" y="197" type="line"/>
      <point x="595" y="0" type="line"/>
      <point x="79" y="0" type="line"/>
      <point x="90" y="72" type="line"/>
      <point x="431" y="273"/>
      <point x="549" y="341"/>
      <point x="549" y="469" type="curve" smooth="yes"/>
      <point x="549" y="540"/>
      <point x="507" y="585"/>
      <point x="411" y="585" type="curve" smooth="yes"/>
      <point x="344.0" y="585.0"/>
      <point x="282" y="564"/>
      <point x="239" y="530" type="curve"/>
      <point x="245" y="549"/>
      <point x="272" y="591"/>
      <point x="270" y="578" type="curve" smooth="yes"/>
      <point x="246" y="423" type="line"/>
      <point x="156" y="423" type="line"/>
      <point x="180" y="578" type="line"/>
      <point x="239" y="614"/>
      <point x="328" y="649"/>
      <point x="438" y="649" type="curve" smooth="yes"/>
      <point x="593" y="649"/>
      <point x="645" y="565"/>
      <point x="645" y="483" type="curve" smooth="yes"/>
      <point x="645" y="310"/>
      <point x="475" y="230"/>
      <point x="122" y="31" type="curve"/>
      <point x="113" y="34"/>
      <point x="105" y="53"/>
      <point x="103" y="64" type="curve"/>
    </contour>
  </outline>
</glyph>
<glyph name="six" format="2">
  <advance width="680"/>
  <unicode hex="0036"/>
  <guideline x="585" y="520" angle="81" identifier="bCqnKMCBy4"/>
  <outline>
    <contour>
      <point x="361" y="-10" type="curve" smooth="yes"/>
      <point x="218" y="-10"/>
      <point x="113" y="71"/>
      <point x="113" y="265" type="curve" smooth="yes"/>
      <point x="113.0" y="505.0"/>
      <point x="284" y="717"/>
      <point x="659" y="740" type="curve"/>
      <point x="665" y="677" type="line"/>
      <point x="342" y="657"/>
      <point x="204.0" y="501.0"/>
      <point x="204" y="255" type="curve" smooth="yes"/>
      <point x="204" y="120"/>
      <point x="263" y="54"/>
      <point x="365" y="54" type="curve" smooth="yes"/>
      <point x="487.0" y="54.0"/>
      <point x="560.0" y="136.0"/>
      <point x="560" y="261" type="curve"/>
      <point x="560" y="345"/>
      <point x="522" y="410"/>
      <point x="420" y="410" type="curve" smooth="yes"/>
      <point x="331" y="410"/>
      <point x="259" y="372"/>
      <point x="180" y="251" type="curve"/>
      <point x="178" y="293" type="line"/>
      <point x="239" y="404"/>
      <point x="325" y="468"/>
      <point x="440" y="468" type="curve" smooth="yes"/>
      <point x="585" y="468"/>
      <point x="653" y="383"/>
      <point x="653" y="272" type="curve" smooth="yes"/>
      <point x="653" y="112"/>
      <point x="543" y="-10"/>
    </contour>
  </outline>
</glyph>
<glyph name="nine" format="2">
  <advance width="680"/>
  <unicode hex="0039"/>
  <outline>
    <contour>
      <point x="422" y="660" type="curve" smooth="yes"/>
      <point x="565" y="660"/>
      <point x="670" y="579"/>
      <point x="670" y="385" type="curve" smooth="yes"/>
      <point x="670.0" y="145.0"/>
      <point x="499" y="-67"/>
      <point x="124" y="-90" type="curve"/>
      <point x="118" y="-27" type="line"/>
      <point x="441" y="-7"/>
      <point x="579.0" y="149"/>
      <point x="579" y="395" type="curve" smooth="yes"/>
      <point x="579" y="530"/>
      <point x="520" y="596"/>
      <point x="418" y="596" type="curve" smooth="yes"/>
      <point x="296.0" y="596.0"/>
      <point x="223.0" y="514"/>
      <point x="223" y="389" type="curve"/>
      <point x="223" y="305"/>
      <point x="261" y="240"/>
      <point x="363" y="240" type="curve" smooth="yes"/>
      <point x="452" y="240"/>
      <point x="524" y="278"/>
      <point x="603" y="399" type="curve"/>
      <point x="605" y="357" type="line"/>
      <point x="544" y="246"/>
      <point x="458" y="182"/>
      <point x="343" y="182" type="curve" smooth="yes"/>
      <point x="198" y="182"/>
      <point x="130" y="267"/>
      <point x="130" y="378" type="curve" smooth="yes"/>
      <point x="130" y="538"/>
      <point x="240" y="660"/>
    </contour>
  </outline>
</glyph>
<glyph name="Z" format="2">
  <advance width="803"/>
  <unicode hex="005A"/>
  <anchor x="518" y="741" name="top"/>
  <anchor x="401" y="0" name="bottom"/>
  <outline>
    <contour>
      <point x="137" y="62" type="line"/>
      <point x="146" y="22" type="line"/>
      <point x="812" y="640" type="line"/>
      <point x="823" y="710" type="line"/>
      <point x="207" y="710" type="line"/>
      <point x="176" y="509" type="line"/>
      <point x="241" y="509" type="line"/>
      <point x="268" y="603" type="line" smooth="yes"/>
      <point x="278" y="639"/>
      <point x="309.0" y="648.0"/>
      <point x="395" y="648" type="curve" smooth="yes"/>
      <point x="752" y="648" type="line"/>
      <point x="737" y="676" type="line"/>
      <point x="85" y="73" type="line"/>
      <point x="74" y="0" type="line"/>
      <point x="729" y="0" type="line"/>
      <point x="765" y="226" type="line"/>
      <point x="699" y="226" type="line"/>
      <point x="665" y="107" type="line" smooth="yes"/>
      <point x="654" y="71"/>
      <point x="624.0" y="62.0"/>
      <point x="538" y="62" type="curve" smooth="yes"/>
    </contour>
  </outline>
</glyph>
<glyph name="grave" format="2">
  <advance width="254"/>
  <unicode hex="0060"/>
  <anchor x="323" y="565" name="_top"/>
  <outline>
    <contour>
      <point x="274" y="805" type="curve" smooth="yes"/>
      <point x="359" y="686" type="line"/>
      <point x="359" y="661" type="line"/>
      <point x="321" y="661" type="line"/>
      <point x="182" y="758" type="line" smooth="yes"/>
      <point x="149" y="780"/>
      <point x="131" y="794"/>
      <point x="131" y="821" type="curve" smooth="yes"/>
      <point x="131" y="847"/>
      <point x="151" y="868"/>
      <point x="187" y="868" type="curve" smooth="yes"/>
      <point x="232" y="868"/>
      <point x="247" y="843"/>
    </contour>
  </outline>
</glyph>
<glyph name="bar" format="2">
  <advance width="421"/>
  <unicode hex="007C"/>
  <outline>
    <contour>
      <point x="294" y="780" type="line"/>
      <point x="146" y="-158" type="line"/>
      <point x="226" y="-158" type="line"/>
      <point x="374" y="780" type="line"/>
    </contour>
  </outline>
</glyph>
<glyph name="acute" format="2">
  <advance width="613"/>
  <unicode hex="00B4"/>
  <anchor x="110" y="565" name="_top"/>
  <outline>
    <contour>
      <point x="197" y="809" type="curve" smooth="yes"/>
      <point x="108" y="686" type="line"/>
      <point x="104" y="661" type="line"/>
      <point x="138" y="661" type="line"/>
      <point x="282" y="748" type="line" smooth="yes"/>
      <point x="318" y="769"/>
      <point x="341" y="787"/>
      <point x="341" y="816" type="curve" smooth="yes"/>
      <point x="341.0" y="840"/>
      <point x="324.3529411764706" y="867.0"/>
      <point x="282" y="867" type="curve" smooth="yes"/>
      <point x="241" y="867"/>
      <point x="221" y="842"/>
    </contour>
  </outline>
</glyph>
<glyph name="icircumflex" format="2">
  <advance width="429"/>
  <unicode hex="00EE"/>
  <outline>
    <contour>
      <point x="386" y="844" type="line"/>
      <point x="512" y="681" type="line"/>
      <point x="508" y="656" type="line"/>
      <point x="467" y="656" type="line"/>
      <point x="292" y="802" type="line"/>
      <point x="365" y="784" type="line"/>
      <point x="176" y="656" type="line"/>
      <point x="129" y="656" type="line"/>
      <point x="133" y="681" type="line"/>
      <point x="306" y="844" type="line"/>
    </contour>
    <contour>
      <point x="298" y="218" type="curve" smooth="yes"/>
      <point x="360" y="565" type="line"/>
      <point x="141" y="565" type="line"/>
      <point x="133" y="512" type="line"/>
      <point x="176" y="507" type="line" smooth="yes"/>
      <point x="249" y="499"/>
      <point x="256" y="485"/>
      <point x="250" y="452" type="curve" smooth="yes"/>
      <point x="210" y="223" type="line" smooth="yes"/>
      <point x="193" y="127"/>
      <point x="187" y="97"/>
      <point x="187" y="73" type="curve" smooth="yes"/>
      <point x="187" y="20"/>
      <point x="218" y="0"/>
      <point x="294" y="0" type="curve" smooth="yes"/>
      <point x="338" y="0"/>
      <point x="373" y="0"/>
      <point x="407" y="0" type="curve"/>
      <point x="415" y="50" type="line"/>
      <point x="385" y="50"/>
      <point x="355" y="50"/>
      <point x="318" y="50" type="curve" smooth="yes"/>
      <point x="291" y="50"/>
      <point x="279" y="58"/>
      <point x="279" y="83" type="curve" smooth="yes"/>
      <point x="279" y="102"/>
      <point x="283" y="136"/>
    </contour>
  </outline>
</glyph>
<glyph name="idieresis" format="2">
  <advance width="428"/>
  <unicode hex="00EF"/>
  <outline>
    <contour>
      <point x="207" y="676" type="curve" smooth="yes"/>
      <point x="251" y="676"/>
      <point x="284" y="696"/>
      <point x="284" y="742" type="curve" smooth="yes"/>
      <point x="284" y="786"/>
      <point x="251" y="807"/>
      <point x="207" y="807" type="curve" smooth="yes"/>
      <point x="161" y="807"/>
      <point x="130" y="786"/>
      <point x="130" y="742" type="curve" smooth="yes"/>
      <point x="130" y="696"/>
      <point x="161" y="676"/>
    </contour>
    <contour>
      <point x="464" y="676" type="curve" smooth="yes"/>
      <point x="508" y="676"/>
      <point x="541" y="696"/>
      <point x="541" y="742" type="curve" smooth="yes"/>
      <point x="541" y="786"/>
      <point x="508" y="807"/>
      <point x="464" y="807" type="curve" smooth="yes"/>
      <point x="418" y="807"/>
      <point x="387" y="786"/>
      <point x="387" y="742" type="curve" smooth="yes"/>
      <point x="387" y="696"/>
      <point x="418" y="676"/>
    </contour>
    <contour>
      <point x="297" y="218" type="curve" smooth="yes"/>
      <point x="359" y="565" type="line"/>
      <point x="140" y="565" type="line"/>
      <point x="132" y="512" type="line"/>
      <point x="175" y="507" type="line" smooth="yes"/>
      <point x="248" y="499"/>
      <point x="255" y="485"/>
      <point x="249" y="452" type="curve" smooth="yes"/>
      <point x="209" y="223" type="line" smooth="yes"/>
      <point x="192" y="127"/>
      <point x="186" y="97"/>
      <point x="186" y="73" type="curve" smooth="yes"/>
      <point x="186" y="20"/>
      <point x="217" y="0"/>
      <point x="293" y="0" type="curve" smooth="yes"/>
      <point x="337" y="0"/>
      <point x="372" y="0"/>
      <point x="406" y="0" type="curve"/>
      <point x="414" y="50" type="line"/>
      <point x="384" y="50"/>
      <point x="354" y="50"/>
      <point x="317" y="50" type="curve" smooth="yes"/>
      <point x="290" y="50"/>
      <point x="278" y="58"/>
      <point x="278" y="83" type="curve" smooth="yes"/>
      <point x="278" y="102"/>
      <point x="282" y="136"/>
    </contour>
  </outline>
</glyph>
<glyph name="itilde" format="2">
  <advance width="422"/>
  <unicode hex="0129"/>
  <outline>
    <contour>
      <point x="397" y="659" type="curve" smooth="yes"/>
      <point x="470" y="659"/>
      <point x="500" y="692"/>
      <point x="527" y="831" type="curve"/>
      <point x="462" y="843" type="line"/>
      <point x="442" y="760"/>
      <point x="437" y="723"/>
      <point x="395" y="723" type="curve" smooth="yes"/>
      <point x="338" y="723"/>
      <point x="336" y="840"/>
      <point x="228" y="840" type="curve" smooth="yes"/>
      <point x="153" y="840"/>
      <point x="124" y="804"/>
      <point x="97" y="671" type="curve"/>
      <point x="162" y="660" type="line"/>
      <point x="181" y="746"/>
      <point x="187" y="778"/>
      <point x="226" y="778" type="curve" smooth="yes"/>
      <point x="281" y="778"/>
      <point x="286" y="659"/>
    </contour>
    <contour>
      <point x="297" y="218" type="curve" smooth="yes"/>
      <point x="359" y="565" type="line"/>
      <point x="140" y="565" type="line"/>
      <point x="132" y="512" type="line"/>
      <point x="175" y="507" type="line" smooth="yes"/>
      <point x="248" y="499"/>
      <point x="255" y="485"/>
      <point x="249" y="452" type="curve" smooth="yes"/>
      <point x="209" y="223" type="line" smooth="yes"/>
      <point x="192" y="127"/>
      <point x="186" y="97"/>
      <point x="186" y="73" type="curve" smooth="yes"/>
      <point x="186" y="20"/>
      <point x="217" y="0"/>
      <point x="293" y="0" type="curve" smooth="yes"/>
      <point x="337" y="0"/>
      <point x="372" y="0"/>
      <point x="406" y="0" type="curve"/>
      <point x="414" y="50" type="line"/>
      <point x="384" y="50"/>
      <point x="354" y="50"/>
      <point x="317" y="50" type="curve" smooth="yes"/>
      <point x="290" y="50"/>
      <point x="278" y="58"/>
      <point x="278" y="83" type="curve" smooth="yes"/>
      <point x="278" y="102"/>
      <point x="282" y="136"/>
    </contour>
  </outline>
</glyph>
<glyph name="Iogonek" format="2">
  <advance width="495"/>
  <unicode hex="012E"/>
  <outline>
    <contour>
      <point x="292" y="39" type="line"/>
      <point x="69" y="-66"/>
      <point x="23" y="-102"/>
      <point x="23" y="-165" type="curve" smooth="yes"/>
      <point x="23" y="-216.0"/>
      <point x="56" y="-252"/>
      <point x="167" y="-252" type="curve" smooth="yes"/>
      <point x="234" y="-252"/>
      <point x="293" y="-234"/>
      <point x="338" y="-197" type="curve"/>
      <point x="306" y="-151" type="line"/>
      <point x="268" y="-178"/>
      <point x="230" y="-193"/>
      <point x="187" y="-193" type="curve" smooth="yes"/>
      <point x="138.0" y="-193.0"/>
      <point x="126" y="-172"/>
      <point x="126" y="-146" type="curve" smooth="yes"/>
      <point x="126.0" y="-105.0"/>
      <point x="161" y="-76"/>
      <point x="317" y="7" type="curve"/>
    </contour>
    <contour>
      <point x="211" y="98" type="line" smooth="yes"/>
      <point x="206" y="69"/>
      <point x="169" y="62"/>
      <point x="120" y="62" type="curve" smooth="yes"/>
      <point x="79" y="62" type="line"/>
      <point x="70" y="0" type="line"/>
      <point x="412" y="0" type="line"/>
      <point x="421" y="62" type="line"/>
      <point x="380" y="62" type="line" smooth="yes"/>
      <point x="330" y="62"/>
      <point x="296" y="68"/>
      <point x="301" y="98" type="curve" smooth="yes"/>
      <point x="382" y="612" type="line" smooth="yes"/>
      <point x="387" y="643"/>
      <point x="424" y="648"/>
      <point x="473" y="648" type="curve" smooth="yes"/>
      <point x="514" y="648" type="line"/>
      <point x="523" y="710" type="line"/>
      <point x="181" y="710" type="line"/>
      <point x="172" y="648" type="line"/>
      <point x="213" y="648" type="line" smooth="yes"/>
      <point x="263" y="648"/>
      <point x="296" y="640"/>
      <point x="292" y="612" type="curve" smooth="yes"/>
    </contour>
  </outline>
</glyph>
<glyph name="iogonek" format="2">
  <advance width="422"/>
  <unicode hex="012F"/>
  <outline>
    <contour>
      <point x="334" y="34" type="line"/>
      <point x="122" y="-66"/>
      <point x="76" y="-102"/>
      <point x="76" y="-165" type="curve" smooth="yes"/>
      <point x="76" y="-216.0"/>
      <point x="109" y="-252"/>
      <point x="220" y="-252" type="curve" smooth="yes"/>
      <point x="287" y="-252"/>
      <point x="346" y="-234"/>
      <point x="388" y="-199" type="curve"/>
      <point x="356" y="-153" type="line"/>
      <point x="321" y="-178"/>
      <point x="283" y="-193"/>
      <point x="240" y="-193" type="curve" smooth="yes"/>
      <point x="191.0" y="-193.0"/>
      <point x="179" y="-172"/>
      <point x="179" y="-146" type="curve" smooth="yes"/>
      <point x="179.0" y="-105.0"/>
      <point x="214" y="-76"/>
      <point x="354" y="7" type="curve"/>
    </contour>
    <contour>
      <point x="249" y="452" type="curve" smooth="yes"/>
      <point x="209" y="223" type="line" smooth="yes"/>
      <point x="192" y="127"/>
      <point x="186" y="97"/>
      <point x="186" y="73" type="curve" smooth="yes"/>
      <point x="186" y="20"/>
      <point x="217" y="0"/>
      <point x="293" y="0" type="curve" smooth="yes"/>
      <point x="337" y="0"/>
      <point x="372" y="0"/>
      <point x="406" y="0" type="curve"/>
      <point x="414" y="50" type="line"/>
      <point x="384" y="50"/>
      <point x="354" y="50"/>
      <point x="317" y="50" type="curve" smooth="yes"/>
      <point x="290" y="50"/>
      <point x="278" y="58"/>
      <point x="278" y="83" type="curve" smooth="yes"/>
      <point x="278" y="102"/>
      <point x="282" y="136"/>
      <point x="297" y="218" type="curve" smooth="yes"/>
      <point x="359" y="565" type="line"/>
      <point x="140" y="565" type="line"/>
      <point x="132" y="512" type="line"/>
      <point x="175" y="507" type="line" smooth="yes"/>
      <point x="248" y="499"/>
      <point x="255" y="485"/>
    </contour>
    <contour>
      <point x="338" y="676" type="curve" smooth="yes"/>
      <point x="382" y="676"/>
      <point x="415" y="696"/>
      <point x="415" y="742" type="curve" smooth="yes"/>
      <point x="415" y="786"/>
      <point x="382" y="807"/>
      <point x="338" y="807" type="curve" smooth="yes"/>
      <point x="292" y="807"/>
      <point x="261" y="786"/>
      <point x="261" y="742" type="curve" smooth="yes"/>
      <point x="261" y="696"/>
      <point x="292" y="676"/>
    </contour>
  </outline>
</glyph>
<glyph name="Ldot" format="2">
  <advance width="826"/>
  <unicode hex="013F"/>
  <outline>
    <contour>
      <point x="519" y="710.0" type="line"/>
      <point x="181" y="710" type="line"/>
      <point x="172" y="648" type="line"/>
      <point x="203" y="648" type="line" smooth="yes"/>
      <point x="253" y="648"/>
      <point x="286" y="640"/>
      <point x="282" y="612" type="curve" smooth="yes"/>
      <point x="201" y="98" type="line" smooth="yes"/>
      <point x="196" y="69"/>
      <point x="159" y="62"/>
      <point x="110" y="62" type="curve" smooth="yes"/>
      <point x="79" y="62" type="line"/>
      <point x="70" y="0" type="line"/>
      <point x="742" y="0" type="line"/>
      <point x="778" y="226" type="line"/>
      <point x="712" y="226" type="line"/>
      <point x="678" y="107" type="line" smooth="yes"/>
      <point x="668" y="71"/>
      <point x="632" y="62"/>
      <point x="546" y="62" type="curve" smooth="yes"/>
      <point x="286" y="62" type="line"/>
      <point x="377" y="638.0" type="line" smooth="yes"/>
      <point x="378" y="645"/>
      <point x="424.0" y="648.0"/>
      <point x="462" y="648.0" type="curve" smooth="yes"/>
      <point x="510" y="648.0" type="line"/>
    </contour>
    <contour>
      <point x="825" y="440" type="curve" smooth="yes"/>
      <point x="825" y="483"/>
      <point x="802" y="513"/>
      <point x="754" y="513" type="curve" smooth="yes"/>
      <point x="702" y="513"/>
      <point x="667" y="479"/>
      <point x="667" y="429" type="curve" smooth="yes"/>
      <point x="667" y="386"/>
      <point x="690" y="356"/>
      <point x="738" y="356" type="curve" smooth="yes"/>
      <point x="790" y="356"/>
      <point x="825" y="390"/>
    </contour>
  </outline>
</glyph>
<glyph name="Lslash" format="2">
  <advance width="865"/>
  <unicode hex="0141"/>
  <outline>
    <contour>
      <point x="59" y="178" type="line"/>
      <point x="700" y="481" type="line"/>
      <point x="712" y="556" type="line"/>
      <point x="71" y="253" type="line"/>
    </contour>
    <contour>
      <point x="573" y="710" type="line"/>
      <point x="235" y="710" type="line"/>
      <point x="226" y="648" type="line"/>
      <point x="257" y="648" type="line" smooth="yes"/>
      <point x="307" y="648"/>
      <point x="340" y="640"/>
      <point x="336" y="612" type="curve" smooth="yes"/>
      <point x="255" y="98" type="line" smooth="yes"/>
      <point x="250" y="69"/>
      <point x="213" y="62"/>
      <point x="164" y="62" type="curve" smooth="yes"/>
      <point x="133" y="62" type="line"/>
      <point x="124" y="0" type="line"/>
      <point x="796" y="0" type="line"/>
      <point x="832" y="226" type="line"/>
      <point x="766" y="226" type="line"/>
      <point x="732" y="107" type="line" smooth="yes"/>
      <point x="722" y="71"/>
      <point x="686" y="62"/>
      <point x="600" y="62" type="curve" smooth="yes"/>
      <point x="340" y="62" type="line"/>
      <point x="431" y="638" type="line" smooth="yes"/>
      <point x="432" y="645"/>
      <point x="478" y="648"/>
      <point x="516" y="648" type="curve" smooth="yes"/>
      <point x="564" y="648" type="line"/>
    </contour>
  </outline>
</glyph>
<glyph name="Tbar" format="2">
  <advance width="827"/>
  <unicode hex="0166"/>
  <guideline x="179" y="315" angle="81" identifier="rg4K2Qoixu"/>
  <outline>
    <contour>
      <point x="384" y="98" type="line" smooth="yes"/>
      <point x="379" y="69"/>
      <point x="342" y="62"/>
      <point x="293" y="62" type="curve" smooth="yes"/>
      <point x="246" y="62" type="line"/>
      <point x="236" y="0" type="line"/>
      <point x="593" y="0" type="line"/>
      <point x="603" y="62" type="line"/>
      <point x="554" y="62" type="line" smooth="yes"/>
      <point x="504" y="62.0"/>
      <point x="471" y="70"/>
      <point x="475" y="98" type="curve" smooth="yes"/>
      <point x="562" y="650" type="line"/>
      <point x="678" y="650" type="line" smooth="yes"/>
      <point x="763" y="650"/>
      <point x="792" y="641"/>
      <point x="791" y="605" type="curve" smooth="yes"/>
      <point x="788" y="471" type="line"/>
      <point x="852" y="471" type="line"/>
      <point x="889" y="710" type="line"/>
      <point x="162" y="710" type="line"/>
      <point x="125" y="471" type="line"/>
      <point x="189" y="471" type="line"/>
      <point x="228" y="605" type="line" smooth="yes"/>
      <point x="239" y="641"/>
      <point x="269" y="650"/>
      <point x="355" y="650" type="curve" smooth="yes"/>
      <point x="471" y="650" type="line"/>
    </contour>
    <contour>
      <point x="182" y="335" type="line"/>
      <point x="174" y="278" type="line"/>
      <point x="742" y="278" type="line"/>
      <point x="750" y="335" type="line"/>
    </contour>
  </outline>
</glyph>
<glyph name="tilde" format="2">
  <advance width="432"/>
  <unicode hex="02DC"/>
  <anchor x="305" y="565" name="_top"/>
  <outline>
    <contour>
      <point x="426" y="659" type="curve" smooth="yes"/>
      <point x="501" y="659"/>
      <point x="535" y="692"/>
      <point x="564" y="831" type="curve"/>
      <point x="498" y="844" type="line"/>
      <point x="478" y="761"/>
      <point x="470" y="725"/>
      <point x="428" y="725" type="curve" smooth="yes"/>
      <point x="368" y="725"/>
      <point x="351" y="840"/>
      <point x="244" y="840" type="curve" smooth="yes"/>
      <point x="168" y="840"/>
      <point x="133" y="804"/>
      <point x="106" y="671" type="curve"/>
      <point x="171" y="659" type="line"/>
      <point x="187" y="745"/>
      <point x="201" y="776"/>
      <point x="237" y="776" type="curve" smooth="yes"/>
      <point x="296" y="776"/>
      <point x="314" y="659"/>
    </contour>
  </outline>
</glyph>
<glyph name="hungarumlaut" format="2">
  <advance width="386"/>
  <unicode hex="02DD"/>
  <anchor x="233" y="565" name="_top"/>
  <outline>
    <contour>
      <point x="149" y="814" type="curve" smooth="yes"/>
      <point x="109" y="686" type="line"/>
      <point x="106" y="661" type="line"/>
      <point x="140" y="661" type="line"/>
      <point x="233" y="753" type="line" smooth="yes"/>
      <point x="262" y="781"/>
      <point x="275" y="796"/>
      <point x="275" y="820" type="curve" smooth="yes"/>
      <point x="275" y="845"/>
      <point x="258" y="869"/>
      <point x="214" y="869" type="curve" smooth="yes"/>
      <point x="174" y="869"/>
      <point x="160" y="848"/>
    </contour>
    <contour>
      <point x="389" y="814" type="curve" smooth="yes"/>
      <point x="350" y="686" type="line"/>
      <point x="347" y="661" type="line"/>
      <point x="381" y="661" type="line"/>
      <point x="474" y="753" type="line" smooth="yes"/>
      <point x="502" y="781"/>
      <point x="515" y="796"/>
      <point x="515" y="822" type="curve" smooth="yes"/>
      <point x="515" y="843"/>
      <point x="498" y="869"/>
      <point x="454" y="869" type="curve" smooth="yes"/>
      <point x="414" y="869"/>
      <point x="399" y="848"/>
    </contour>
  </outline>
</glyph>
<glyph name="idieresisacute" format="2">
  <advance width="428"/>
  <unicode hex="1E2F"/>
  <outline>
    <contour>
      <point x="207" y="676" type="curve" smooth="yes"/>
      <point x="161" y="676"/>
      <point x="130" y="696"/>
      <point x="130" y="742" type="curve" smooth="yes"/>
      <point x="130" y="786"/>
      <point x="161" y="807"/>
      <point x="207" y="807" type="curve" smooth="yes"/>
      <point x="251" y="807"/>
      <point x="284" y="786"/>
      <point x="284" y="742" type="curve" smooth="yes"/>
      <point x="284" y="696"/>
      <point x="251" y="676"/>
    </contour>
    <contour>
      <point x="464" y="676" type="curve" smooth="yes"/>
      <point x="418" y="676"/>
      <point x="387" y="696"/>
      <point x="387" y="742" type="curve" smooth="yes"/>
      <point x="387" y="786"/>
      <point x="418" y="807"/>
      <point x="464" y="807" type="curve" smooth="yes"/>
      <point x="508" y="807"/>
      <point x="541" y="786"/>
      <point x="541" y="742" type="curve" smooth="yes"/>
      <point x="541" y="696"/>
      <point x="508" y="676"/>
    </contour>
    <contour>
      <point x="421" y="1011" type="curve" smooth="yes"/>
      <point x="332" y="888" type="line"/>
      <point x="328" y="863" type="line"/>
      <point x="362" y="863" type="line"/>
      <point x="505" y="951" type="line" smooth="yes"/>
      <point x="542" y="973"/>
      <point x="568" y="990"/>
      <point x="568" y="1020" type="curve" smooth="yes"/>
      <point x="568.0" y="1045.0"/>
      <point x="550" y="1069.0"/>
      <point x="506" y="1069" type="curve" smooth="yes"/>
      <point x="465" y="1069"/>
      <point x="444" y="1043"/>
    </contour>
    <contour>
      <point x="297" y="218" type="curve" smooth="yes"/>
      <point x="359" y="565" type="line"/>
      <point x="140" y="565" type="line"/>
      <point x="132" y="512" type="line"/>
      <point x="175" y="507" type="line" smooth="yes"/>
      <point x="248" y="499"/>
      <point x="255" y="485"/>
      <point x="249" y="452" type="curve" smooth="yes"/>
      <point x="209" y="223" type="line" smooth="yes"/>
      <point x="192" y="127"/>
      <point x="186" y="97"/>
      <point x="186" y="73" type="curve" smooth="yes"/>
      <point x="186" y="20"/>
      <point x="217" y="0"/>
      <point x="293" y="0" type="curve" smooth="yes"/>
      <point x="337" y="0"/>
      <point x="372" y="0"/>
      <point x="406" y="0" type="curve"/>
      <point x="414" y="50" type="line"/>
      <point x="384" y="50"/>
      <point x="354" y="50"/>
      <point x="317" y="50" type="curve" smooth="yes"/>
      <point x="290" y="50"/>
      <point x="278" y="58"/>
      <point x="278" y="83" type="curve" smooth="yes"/>
      <point x="278" y="102"/>
      <point x="282" y="136"/>
    </contour>
  </outline>
</glyph>
<glyph name="uni25B8" format="2">
  <advance width="648"/>
  <unicode hex="25B8"/>
  <outline>
    <contour>
      <point x="223" y="20" type="line"/>
      <point x="618" y="277" type="line"/>
      <point x="223" y="535" type="line"/>
    </contour>
  </outline>
</glyph>
<glyph name="uni25BF" format="2">
  <advance width="663"/>
  <unicode hex="25BF"/>
  <outline>
    <contour>
      <point x="678" y="464" type="line"/>
      <point x="131" y="464" type="line"/>
      <point x="404" y="91" type="line"/>
    </contour>
    <contour>
      <point x="588" y="414" type="line"/>
      <point x="580" y="430" type="line"/>
      <point x="398" y="175" type="line"/>
      <point x="410" y="175" type="line"/>
      <point x="228" y="430" type="line"/>
      <point x="221" y="414" type="line"/>
    </contour>
  </outline>
</glyph>
<glyph name="two.den" format="2">
  <advance width="584"/>
  <unicode hex="E404"/>
  <guideline x="107" y="33" angle="81" identifier="sfgIGA8V0s"/>
  <outline>
    <contour>
      <point x="354" y="59" type="line" smooth="yes"/>
      <point x="422" y="59"/>
      <point x="447" y="63"/>
      <point x="455" y="87" type="curve" smooth="yes"/>
      <point x="470" y="133" type="line"/>
      <point x="523" y="133" type="line"/>
      <point x="504" y="0" type="line"/>
      <point x="90" y="0" type="line"/>
      <point x="101" y="71" type="line"/>
      <point x="296" y="162"/>
      <point x="419" y="203"/>
      <point x="419" y="297" type="curve" smooth="yes"/>
      <point x="419" y="349"/>
      <point x="387" y="370"/>
      <point x="326" y="370" type="curve" smooth="yes"/>
      <point x="272" y="370"/>
      <point x="229" y="356"/>
      <point x="204" y="344" type="curve"/>
      <point x="210" y="356"/>
      <point x="228" y="371"/>
      <point x="247" y="373" type="curve"/>
      <point x="231" y="282" type="line"/>
      <point x="146" y="282" type="line"/>
      <point x="164" y="387" type="line"/>
      <point x="192" y="400"/>
      <point x="254" y="420"/>
      <point x="333" y="420" type="curve" smooth="yes"/>
      <point x="459" y="420"/>
      <point x="515" y="373"/>
      <point x="515" y="301" type="curve"/>
      <point x="515" y="177"/>
      <point x="330" y="128"/>
      <point x="138" y="46" type="curve"/>
      <point x="133" y="49"/>
      <point x="136" y="55"/>
      <point x="140" y="59" type="curve"/>
    </contour>
  </outline>
</glyph>
<glyph name="four.den" format="2">
  <advance width="593"/>
  <unicode hex="E406"/>
  <guideline x="78" y="90" angle="81" identifier="k6zGk8GoYQ"/>
  <outline>
    <contour>
      <point x="79" y="96" type="line"/>
      <point x="559" y="96" type="line"/>
      <point x="569" y="160" type="line"/>
      <point x="124" y="160" type="line"/>
      <point x="122" y="123" type="line"/>
      <point x="420" y="382" type="line"/>
      <point x="428" y="415" type="line"/>
      <point x="380" y="415" type="line"/>
      <point x="90" y="164" type="line"/>
    </contour>
    <contour>
      <point x="428" y="0" type="line"/>
      <point x="498" y="415" type="line"/>
      <point x="411" y="415" type="line"/>
      <point x="408" y="395" type="line"/>
      <point x="342" y="0" type="line"/>
    </contour>
  </outline>
</glyph>
<glyph name="six.den" format="2">
  <advance width="577"/>
  <unicode hex="E408"/>
  <outline>
    <contour>
      <point x="317" y="-6" type="curve" smooth="yes"/>
      <point x="189" y="-6"/>
      <point x="112" y="63"/>
      <point x="112" y="185" type="curve" smooth="yes"/>
      <point x="112" y="322"/>
      <point x="223" y="430"/>
      <point x="489" y="437" type="curve"/>
      <point x="494" y="388" type="line"/>
      <point x="278" y="379"/>
      <point x="203" y="307"/>
      <point x="203" y="186" type="curve" smooth="yes"/>
      <point x="203" y="105"/>
      <point x="234" y="43"/>
      <point x="315" y="43" type="curve" smooth="yes"/>
      <point x="388" y="43"/>
      <point x="421" y="88"/>
      <point x="421" y="138" type="curve"/>
      <point x="421" y="198"/>
      <point x="385" y="223"/>
      <point x="333" y="223" type="curve"/>
      <point x="268" y="223"/>
      <point x="230" y="184"/>
      <point x="197" y="133" type="curve"/>
      <point x="184" y="168" type="line"/>
      <point x="211" y="214"/>
      <point x="265" y="272"/>
      <point x="360" y="272" type="curve"/>
      <point x="442" y="272"/>
      <point x="518" y="239"/>
      <point x="518" y="144" type="curve" smooth="yes"/>
      <point x="518" y="53"/>
      <point x="436" y="-6"/>
    </contour>
  </outline>
</glyph>
<glyph name="eight.den" format="2">
  <advance width="536"/>
  <unicode hex="E40A"/>
  <outline>
    <contour>
      <point x="305" y="228.0" type="curve" smooth="yes"/>
      <point x="173" y="228"/>
      <point x="79" y="195"/>
      <point x="79" y="104.0" type="curve" smooth="yes"/>
      <point x="79.0" y="38.0"/>
      <point x="131" y="-6"/>
      <point x="268" y="-6.0" type="curve" smooth="yes"/>
      <point x="403" y="-6"/>
      <point x="493" y="36"/>
      <point x="493" y="124.0" type="curve" smooth="yes"/>
      <point x="493.0" y="195.0"/>
      <point x="436" y="228"/>
    </contour>
    <contour>
      <point x="277" y="47.0" type="curve" smooth="yes"/>
      <point x="215" y="47"/>
      <point x="171" y="68"/>
      <point x="171" y="119.0" type="curve" smooth="yes"/>
      <point x="171" y="172"/>
      <point x="227" y="199"/>
      <point x="301" y="199.0" type="curve" smooth="yes"/>
      <point x="365" y="199"/>
      <point x="404" y="172"/>
      <point x="404" y="129.0" type="curve" smooth="yes"/>
      <point x="404.0" y="74.0"/>
      <point x="347" y="47"/>
    </contour>
    <contour>
      <point x="336" y="421.0" type="curve" smooth="yes"/>
      <point x="224" y="421.0"/>
      <point x="135" y="383"/>
      <point x="135" y="304.0" type="curve" smooth="yes"/>
      <point x="135.0" y="250.0"/>
      <point x="183" y="214"/>
      <point x="303" y="214.0" type="curve" smooth="yes"/>
      <point x="423" y="214"/>
      <point x="502" y="246"/>
      <point x="502" y="324.0" type="curve" smooth="yes"/>
      <point x="502.0" y="383.0"/>
      <point x="447" y="421.0"/>
    </contour>
    <contour>
      <point x="307" y="241.0" type="curve" smooth="yes"/>
      <point x="252" y="241"/>
      <point x="217" y="261"/>
      <point x="217" y="302.0" type="curve" smooth="yes"/>
      <point x="217" y="349"/>
      <point x="262" y="369.0"/>
      <point x="327" y="369.0" type="curve" smooth="yes"/>
      <point x="380" y="369"/>
      <point x="417" y="352"/>
      <point x="417" y="309.0" type="curve" smooth="yes"/>
      <point x="417.0" y="261.0"/>
      <point x="370" y="241.0"/>
    </contour>
  </outline>
</glyph>
<glyph name="acute.ucpl" format="2">
  <advance width="613"/>
  <anchor x="157" y="740" name="_top"/>
  <outline>
    <contour>
      <point x="182" y="913" type="curve" smooth="yes"/>
      <point x="140" y="818" type="line"/>
      <point x="138" y="793" type="line"/>
      <point x="176" y="793" type="line"/>
      <point x="266" y="861" type="line" smooth="yes"/>
      <point x="296" y="883"/>
      <point x="315" y="902"/>
      <point x="315" y="927" type="curve" smooth="yes"/>
      <point x="315.0" y="953"/>
      <point x="296" y="974"/>
      <point x="255" y="974" type="curve" smooth="yes"/>
      <point x="214" y="974"/>
      <point x="196" y="945"/>
    </contour>
  </outline>
</glyph>
<glyph name="bar.uc" format="2">
  <advance width="410"/>
  <outline>
    <contour>
      <point x="220" y="760" type="line"/>
      <point x="220" y="-60" type="line"/>
      <point x="300" y="-60" type="line"/>
      <point x="300" y="760" type="line"/>
    </contour>
  </outline>
</glyph>
<glyph name="braceleft.uc" format="2">
  <advance width="550"/>
  <guideline x="196" y="311" angle="81" identifier="qpkYoS6m99"/>
  <outline>
    <contour>
      <point x="152" y="27" type="curve" smooth="yes"/>
      <point x="152" y="-70"/>
      <point x="249" y="-115"/>
      <point x="472" y="-92" type="curve"/>
      <point x="481" y="-36" type="line"/>
      <point x="288" y="-54"/>
      <point x="234" y="-25"/>
      <point x="234" y="36" type="curve" smooth="yes"/>
      <point x="234" y="142"/>
      <point x="448" y="147"/>
      <point x="448" y="231" type="curve" smooth="yes"/>
      <point x="448" y="276"/>
      <point x="390" y="301"/>
      <point x="202" y="320" type="curve"/>
      <point x="204" y="337" type="line"/>
      <point x="398" y="356"/>
      <point x="467" y="374"/>
      <point x="467" y="432" type="curve" smooth="yes"/>
      <point x="467" y="508"/>
      <point x="322" y="511"/>
      <point x="322" y="610" type="curve" smooth="yes"/>
      <point x="322" y="680"/>
      <point x="386" y="720"/>
      <point x="595" y="697" type="curve"/>
      <point x="604" y="753" type="line"/>
      <point x="362" y="776"/>
      <point x="241" y="727"/>
      <point x="241" y="610" type="curve" smooth="yes"/>
      <point x="241" y="488"/>
      <point x="367" y="467"/>
      <point x="410" y="407" type="curve"/>
      <point x="412" y="423" type="line"/>
      <point x="128" y="368" type="line"/>
      <point x="116" y="293" type="line"/>
      <point x="395" y="228" type="line"/>
      <point x="389" y="239" type="line"/>
      <point x="327" y="179"/>
      <point x="152" y="157"/>
    </contour>
  </outline>
</glyph>
<glyph name="breve_acute.uc" format="2">
  <advance width="407"/>
  <anchor x="321" y="744" name="_top"/>
  <outline>
    <contour>
      <point x="440" y="1105" type="curve" smooth="yes"/>
      <point x="328" y="997" type="line"/>
      <point x="324" y="972" type="line"/>
      <point x="365" y="972" type="line"/>
      <point x="509" y="1036" type="line" smooth="yes"/>
      <point x="553" y="1056"/>
      <point x="577" y="1072"/>
      <point x="577" y="1101" type="curve" smooth="yes"/>
      <point x="577" y="1122"/>
      <point x="562" y="1146"/>
      <point x="522" y="1146" type="curve" smooth="yes"/>
      <point x="487" y="1146"/>
      <point x="466" y="1130"/>
    </contour>
    <contour>
      <point x="354" y="796" type="curve" smooth="yes"/>
      <point x="186" y="796"/>
      <point x="142" y="874"/>
      <point x="152" y="962" type="curve"/>
      <point x="222" y="962" type="line"/>
      <point x="224" y="901"/>
      <point x="258" y="869"/>
      <point x="356" y="869" type="curve" smooth="yes"/>
      <point x="438" y="869"/>
      <point x="477" y="899"/>
      <point x="487" y="962" type="curve"/>
      <point x="558" y="962" type="line"/>
      <point x="553" y="857"/>
      <point x="483" y="796"/>
    </contour>
  </outline>
</glyph>
<glyph name="caron.alt" format="2">
  <advance width="541"/>
  <anchor x="213" y="574" name="_right"/>
  <outline>
    <contour>
      <point x="353" y="517" type="line"/>
      <point x="282" y="517" type="line"/>
      <point x="287" y="541" type="line"/>
      <point x="329" y="710" type="line"/>
      <point x="449" y="710" type="line"/>
    </contour>
  </outline>
</glyph>
<glyph name="cedi.proportional" format="2">
  <advance width="830"/>
  <guideline x="723" y="573" angle="81" identifier="zdNwWS77Is"/>
  <outline>
    <contour>
      <point x="466" y="10" type="curve" smooth="yes"/>
      <point x="651.0" y="10.0"/>
      <point x="754" y="92"/>
      <point x="809" y="223" type="curve"/>
      <point x="740" y="254" type="line"/>
      <point x="688" y="136"/>
      <point x="621" y="75"/>
      <point x="476" y="75" type="curve" smooth="yes"/>
      <point x="296.0" y="75"/>
      <point x="210.0" y="171.46486539322427"/>
      <point x="210" y="333" type="curve" smooth="yes"/>
      <point x="210" y="486"/>
      <point x="289" y="636"/>
      <point x="518" y="636" type="curve" smooth="yes"/>
      <point x="645" y="636"/>
      <point x="712" y="611"/>
      <point x="761" y="583" type="curve"/>
      <point x="763.0" y="604.0"/>
      <point x="764.8" y="640.6"/>
      <point x="736" y="655" type="curve"/>
      <point x="710" y="492" type="line"/>
      <point x="800" y="492" type="line"/>
      <point x="822" y="634" type="line"/>
      <point x="779" y="662"/>
      <point x="682" y="700"/>
      <point x="511" y="700" type="curve" smooth="yes"/>
      <point x="229" y="700"/>
      <point x="111" y="520"/>
      <point x="111" y="336" type="curve" smooth="yes"/>
      <point x="111.0" y="141"/>
      <point x="224" y="10"/>
    </contour>
    <contour>
      <point x="518" y="790" type="line"/>
      <point x="501" y="678" type="line"/>
      <point x="508" y="669" type="line"/>
      <point x="406" y="51" type="line"/>
      <point x="395" y="37" type="line"/>
      <point x="369" y="-120" type="line"/>
      <point x="452" y="-120" type="line"/>
      <point x="478" y="39" type="line"/>
      <point x="468" y="47" type="line"/>
      <point x="572" y="672" type="line"/>
      <point x="583" y="680" type="line"/>
      <point x="601" y="790" type="line"/>
    </contour>
  </outline>
</glyph>
<glyph name="circumflex_acute.uc" format="2">
  <advance width="613"/>
  <guideline x="330" y="854" angle="81" identifier="lkq31fRkt7"/>
  <anchor x="311" y="740" name="_top"/>
  <outline>
    <contour>
      <point x="641" y="1054" type="curve" smooth="yes"/>
      <point x="529" y="946" type="line"/>
      <point x="526" y="921" type="line"/>
      <point x="567" y="921" type="line"/>
      <point x="711" y="985" type="line" smooth="yes"/>
      <point x="754" y="1005"/>
      <point x="778" y="1021"/>
      <point x="778" y="1048" type="curve" smooth="yes"/>
      <point x="778" y="1069"/>
      <point x="762" y="1095"/>
      <point x="721" y="1095" type="curve" smooth="yes"/>
      <point x="687" y="1095"/>
      <point x="667" y="1080"/>
    </contour>
    <contour>
      <point x="377" y="957" type="line"/>
      <point x="541" y="807" type="line"/>
      <point x="536" y="782" type="line"/>
      <point x="486" y="782" type="line"/>
      <point x="277" y="916" type="line"/>
      <point x="387" y="912" type="line"/>
      <point x="168" y="782" type="line"/>
      <point x="124" y="782" type="line"/>
      <point x="128" y="807" type="line"/>
      <point x="290" y="957" type="line"/>
    </contour>
  </outline>
</glyph>
<glyph name="circumflex_grave" format="2">
  <advance width="529"/>
  <guideline x="284" y="701" angle="81" identifier="q7ixjFwwB0"/>
  <anchor x="263" y="565" name="_top"/>
  <outline>
    <contour>
      <point x="571" y="938" type="curve" smooth="yes"/>
      <point x="630" y="824" type="line"/>
      <point x="626" y="800" type="line"/>
      <point x="595" y="800" type="line"/>
      <point x="479" y="896" type="line" smooth="yes"/>
      <point x="451" y="918"/>
      <point x="441" y="933"/>
      <point x="441" y="956" type="curve" smooth="yes"/>
      <point x="441" y="979"/>
      <point x="457" y="1001"/>
      <point x="493" y="1001" type="curve" smooth="yes"/>
      <point x="538" y="1001"/>
      <point x="551" y="974"/>
    </contour>
    <contour>
      <point x="337" y="844" type="line"/>
      <point x="494" y="681" type="line"/>
      <point x="490" y="656" type="line"/>
      <point x="445" y="656" type="line"/>
      <point x="246" y="802" type="line"/>
      <point x="322" y="784" type="line"/>
      <point x="147" y="656" type="line"/>
      <point x="104" y="656" type="line"/>
      <point x="108" y="681" type="line"/>
      <point x="258" y="844" type="line"/>
    </contour>
  </outline>
</glyph>
<glyph name="circumflex_grave.uc" format="2">
  <advance width="601"/>
  <anchor x="311" y="740" name="_top"/>
  <outline>
    <contour>
      <point x="631" y="1042" type="line" smooth="yes"/>
      <point x="594" y="1076"/>
      <point x="574" y="1097"/>
      <point x="535" y="1097" type="curve" smooth="yes"/>
      <point x="501" y="1097"/>
      <point x="484" y="1075"/>
      <point x="484" y="1054" type="curve" smooth="yes"/>
      <point x="484" y="1027"/>
      <point x="503" y="1015"/>
      <point x="551" y="991" type="curve" smooth="yes"/>
      <point x="688" y="923" type="line"/>
      <point x="725" y="923" type="line"/>
      <point x="731" y="948" type="line"/>
    </contour>
    <contour>
      <point x="377" y="957" type="line"/>
      <point x="541" y="807" type="line"/>
      <point x="536" y="782" type="line"/>
      <point x="486" y="782" type="line"/>
      <point x="277" y="916" type="line"/>
      <point x="387" y="912" type="line"/>
      <point x="168" y="782" type="line"/>
      <point x="124" y="782" type="line"/>
      <point x="128" y="807" type="line"/>
      <point x="290" y="957" type="line"/>
    </contour>
  </outline>
</glyph>
<glyph name="circumflex_hook" format="2">
  <advance width="596"/>
  <anchor x="282" y="565" name="_top"/>
  <outline>
    <contour>
      <point x="389" y="938" type="line"/>
      <point x="401" y="1008"/>
      <point x="472" y="1047"/>
      <point x="577" y="1047" type="curve" smooth="yes"/>
      <point x="692" y="1047"/>
      <point x="744" y="1005"/>
      <point x="744" y="946" type="curve" smooth="yes"/>
      <point x="744" y="858"/>
      <point x="666" y="832"/>
      <point x="540" y="831" type="curve"/>
      <point x="597" y="873" type="line"/>
      <point x="585" y="785" type="line"/>
      <point x="502" y="785" type="line"/>
      <point x="517" y="876" type="line"/>
      <point x="612" y="877"/>
      <point x="652" y="889"/>
      <point x="652" y="936" type="curve" smooth="yes"/>
      <point x="652" y="967"/>
      <point x="628" y="984"/>
      <point x="573" y="984" type="curve" smooth="yes"/>
      <point x="518" y="984"/>
      <point x="490" y="967"/>
      <point x="482" y="938" type="curve"/>
    </contour>
    <contour>
      <point x="337" y="844" type="line"/>
      <point x="494" y="681" type="line"/>
      <point x="490" y="656" type="line"/>
      <point x="445" y="656" type="line"/>
      <point x="246" y="802" type="line"/>
      <point x="322" y="784" type="line"/>
      <point x="147" y="656" type="line"/>
      <point x="104" y="656" type="line"/>
      <point x="108" y="681" type="line"/>
      <point x="258" y="844" type="line"/>
    </contour>
  </outline>
</glyph>
<glyph name="circumflex_tilde" format="2">
  <advance width="412"/>
  <anchor x="295" y="565" name="_top"/>
  <outline>
    <contour>
      <point x="381" y="817" type="line"/>
      <point x="520" y="681" type="line"/>
      <point x="516" y="656" type="line"/>
      <point x="477" y="656" type="line"/>
      <point x="290" y="776" type="line"/>
      <point x="362" y="762" type="line"/>
      <point x="165" y="656" type="line"/>
      <point x="117" y="656" type="line"/>
      <point x="121" y="681" type="line"/>
      <point x="302" y="817" type="line"/>
    </contour>
    <contour>
      <point x="279" y="1023" type="curve" smooth="yes"/>
      <point x="224" y="1023"/>
      <point x="170" y="994"/>
      <point x="141" y="893" type="curve"/>
      <point x="199" y="877" type="line"/>
      <point x="224" y="948"/>
      <point x="243" y="965"/>
      <point x="274" y="965" type="curve" smooth="yes"/>
      <point x="332" y="965"/>
      <point x="338" y="878"/>
      <point x="436" y="878" type="curve" smooth="yes"/>
      <point x="489" y="878"/>
      <point x="535" y="903"/>
      <point x="565" y="1012" type="curve"/>
      <point x="507" y="1028" type="line"/>
      <point x="486" y="954"/>
      <point x="466" y="939"/>
      <point x="440" y="939" type="curve" smooth="yes"/>
      <point x="385" y="939"/>
      <point x="377" y="1023"/>
    </contour>
  </outline>
</glyph>
<glyph name="dblgrave.uc" format="2">
  <advance width="477"/>
  <anchor x="467" y="740" name="_top"/>
  <outline>
    <contour>
      <point x="514" y="926" type="line" smooth="yes"/>
      <point x="492" y="956"/>
      <point x="475" y="974"/>
      <point x="439" y="974" type="curve" smooth="yes"/>
      <point x="407" y="974"/>
      <point x="389" y="955"/>
      <point x="389" y="932" type="curve" smooth="yes"/>
      <point x="389.0" y="907.0"/>
      <point x="401" y="895"/>
      <point x="454" y="861" type="curve" smooth="yes"/>
      <point x="563" y="793" type="line"/>
      <point x="599" y="793" type="line"/>
      <point x="595" y="818" type="line"/>
    </contour>
    <contour>
      <point x="279" y="926" type="line" smooth="yes"/>
      <point x="257" y="956"/>
      <point x="240" y="974"/>
      <point x="204" y="974" type="curve" smooth="yes"/>
      <point x="172" y="974"/>
      <point x="154" y="955"/>
      <point x="154" y="932" type="curve" smooth="yes"/>
      <point x="154.0" y="907.0"/>
      <point x="166" y="895"/>
      <point x="219" y="861" type="curve" smooth="yes"/>
      <point x="328" y="793" type="line"/>
      <point x="364" y="793" type="line"/>
      <point x="360" y="818" type="line"/>
    </contour>
  </outline>
</glyph>
<glyph name="f_j" format="2">
  <advance width="886"/>
  <outline>
    <contour>
      <point x="808" y="676" type="curve" smooth="yes"/>
      <point x="852" y="676"/>
      <point x="885" y="696"/>
      <point x="885" y="742" type="curve" smooth="yes"/>
      <point x="885" y="786"/>
      <point x="852" y="807"/>
      <point x="808" y="807" type="curve" smooth="yes"/>
      <point x="762" y="807"/>
      <point x="731" y="786"/>
      <point x="731" y="742" type="curve" smooth="yes"/>
      <point x="731" y="696"/>
      <point x="762" y="676"/>
    </contour>
    <contour>
      <point x="504" y="722" type="curve" smooth="yes"/>
      <point x="541" y="722"/>
      <point x="562" y="717"/>
      <point x="594" y="707" type="curve"/>
      <point x="605" y="776" type="line"/>
      <point x="581" y="784"/>
      <point x="548" y="790"/>
      <point x="504" y="790" type="curve" smooth="yes"/>
      <point x="374" y="790"/>
      <point x="311" y="733"/>
      <point x="296" y="625" type="curve" smooth="yes"/>
      <point x="178" y="-223" type="line"/>
      <point x="258" y="-223" type="line"/>
      <point x="386" y="616" type="line" smooth="yes"/>
      <point x="397" y="691"/>
      <point x="432" y="722"/>
    </contour>
    <contour>
      <point x="638" y="-58" type="line" smooth="yes"/>
      <point x="622" y="-156"/>
      <point x="583" y="-184"/>
      <point x="505" y="-184" type="curve" smooth="yes"/>
      <point x="482" y="-184"/>
      <point x="452" y="-180"/>
      <point x="415" y="-170" type="curve"/>
      <point x="404" y="-237" type="line"/>
      <point x="437" y="-245"/>
      <point x="479" y="-250"/>
      <point x="517" y="-250" type="curve" smooth="yes"/>
      <point x="651" y="-250"/>
      <point x="706" y="-197"/>
      <point x="730" y="-50" type="curve" smooth="yes"/>
      <point x="829" y="565" type="line"/>
      <point x="147" y="565" type="line"/>
      <point x="139" y="509" type="line"/>
      <point x="642" y="509" type="line" smooth="yes"/>
      <point x="715" y="509"/>
      <point x="724" y="485"/>
      <point x="719" y="452" type="curve" smooth="yes"/>
    </contour>
  </outline>
</glyph>
<glyph name="five.oldprop" format="2">
  <advance width="695"/>
  <outline>
    <contour>
      <point x="352" y="-131" type="curve" smooth="yes"/>
      <point x="548" y="-131"/>
      <point x="651" y="-14"/>
      <point x="651" y="128" type="curve" smooth="yes"/>
      <point x="651.0" y="257"/>
      <point x="573" y="356.0"/>
      <point x="397" y="356" type="curve"/>
      <point x="298" y="356"/>
      <point x="225" y="319"/>
      <point x="179" y="254" type="curve"/>
      <point x="198" y="245" type="line"/>
      <point x="256" y="578" type="line"/>
      <point x="222" y="529" type="line"/>
      <point x="614" y="529" type="line"/>
      <point x="639" y="598" type="line"/>
      <point x="190" y="598" type="line"/>
      <point x="125" y="215" type="line"/>
      <point x="193" y="215" type="line"/>
      <point x="236" y="272"/>
      <point x="299" y="301"/>
      <point x="376" y="301" type="curve"/>
      <point x="497" y="301.0"/>
      <point x="552.0" y="233"/>
      <point x="552" y="130" type="curve" smooth="yes"/>
      <point x="552.0" y="23.0"/>
      <point x="494" y="-67"/>
      <point x="350" y="-67" type="curve" smooth="yes"/>
      <point x="200" y="-67"/>
      <point x="145" y="8"/>
      <point x="99" y="77" type="curve"/>
      <point x="33" y="32" type="line"/>
      <point x="81" y="-57"/>
      <point x="175" y="-131"/>
    </contour>
  </outline>
</glyph>
<glyph name="four.midprop" format="2">
  <advance width="747"/>
  <outline>
    <contour>
      <point x="72" y="115" type="line"/>
      <point x="733" y="115" type="line"/>
      <point x="744" y="180" type="line"/>
      <point x="118" y="180" type="line"/>
      <point x="127" y="143" type="line"/>
      <point x="588" y="588" type="line"/>
      <point x="601" y="612" type="line"/>
      <point x="527" y="612" type="line"/>
      <point x="84" y="189" type="line"/>
    </contour>
    <contour>
      <point x="558" y="-72" type="line"/>
      <point x="671" y="612" type="line"/>
      <point x="569" y="612" type="line"/>
      <point x="575" y="600" type="line"/>
      <point x="463" y="-72" type="line"/>
    </contour>
  </outline>
</glyph>
<glyph name="four.oldprop" format="2">
  <advance width="751"/>
  <guideline x="736" y="84" angle="81" identifier="W7vvs0MdNA"/>
  <outline>
    <contour>
      <point x="71" y="62" type="line"/>
      <point x="732" y="62" type="line"/>
      <point x="742" y="127" type="line"/>
      <point x="117" y="127" type="line"/>
      <point x="126" y="90" type="line"/>
      <point x="591" y="575" type="line"/>
      <point x="604" y="599" type="line"/>
      <point x="530" y="599" type="line"/>
      <point x="83" y="136" type="line"/>
    </contour>
    <contour>
      <point x="557" y="-125" type="line"/>
      <point x="674" y="599" type="line"/>
      <point x="572" y="599" type="line"/>
      <point x="578" y="587" type="line"/>
      <point x="462" y="-125" type="line"/>
    </contour>
  </outline>
</glyph>
<glyph name="four.oldtab" format="2">
  <advance width="680"/>
  <outline>
    <contour>
      <point x="55" y="57" type="line"/>
      <point x="663" y="57" type="line"/>
      <point x="675" y="131" type="line"/>
      <point x="101" y="131" type="line"/>
      <point x="107" y="92" type="line"/>
      <point x="524" y="573" type="line"/>
      <point x="541" y="598" type="line"/>
      <point x="471" y="598" type="line"/>
      <point x="67" y="134" type="line"/>
    </contour>
    <contour>
      <point x="490" y="-124" type="line"/>
      <point x="605" y="598" type="line"/>
      <point x="510" y="598" type="line"/>
      <point x="516" y="586" type="line"/>
      <point x="403" y="-124" type="line"/>
    </contour>
  </outline>
</glyph>
<glyph name="kip.proportional" format="2">
  <advance width="826"/>
  <outline>
    <contour>
      <point x="139" y="400" type="line"/>
      <point x="131" y="348" type="line"/>
      <point x="766" y="348" type="line"/>
      <point x="774" y="400" type="line"/>
    </contour>
    <contour>
      <point x="65" y="0" type="line"/>
      <point x="335" y="0" type="line"/>
      <point x="345" y="62" type="line"/>
      <point x="321" y="62" type="line" smooth="yes"/>
      <point x="285" y="62"/>
      <point x="253" y="65"/>
      <point x="254" y="72" type="curve" smooth="yes"/>
      <point x="349" y="638" type="line" smooth="yes"/>
      <point x="350" y="645"/>
      <point x="382" y="648"/>
      <point x="419" y="648" type="curve" smooth="yes"/>
      <point x="443" y="648" type="line"/>
      <point x="453" y="710" type="line"/>
      <point x="183" y="710" type="line"/>
      <point x="173" y="648" type="line"/>
      <point x="203" y="648" type="line" smooth="yes"/>
      <point x="240" y="648"/>
      <point x="265" y="645"/>
      <point x="261" y="618" type="curve" smooth="yes"/>
      <point x="176" y="98" type="line" smooth="yes"/>
      <point x="171" y="69"/>
      <point x="142" y="62"/>
      <point x="104" y="62" type="curve" smooth="yes"/>
      <point x="75" y="62" type="line"/>
    </contour>
    <contour>
      <point x="520" y="0" type="line"/>
      <point x="798" y="0" type="line"/>
      <point x="808" y="62" type="line"/>
      <point x="756" y="62" type="line" smooth="yes"/>
      <point x="723" y="62"/>
      <point x="710" y="70"/>
      <point x="694" y="89" type="curve" smooth="yes"/>
      <point x="431" y="398" type="line"/>
      <point x="427" y="362" type="line"/>
      <point x="746" y="625" type="line" smooth="yes"/>
      <point x="769" y="644"/>
      <point x="782" y="648"/>
      <point x="812" y="648" type="curve" smooth="yes"/>
      <point x="848" y="648" type="line"/>
      <point x="858" y="710" type="line"/>
      <point x="611" y="710" type="line"/>
      <point x="601" y="648" type="line"/>
      <point x="613" y="648" type="line" smooth="yes"/>
      <point x="646" y="648"/>
      <point x="678" y="645"/>
      <point x="678" y="638" type="curve"/>
      <point x="356" y="370" type="line"/>
      <point x="366" y="354" type="line"/>
      <point x="603" y="72" type="line"/>
      <point x="602" y="65"/>
      <point x="574" y="62"/>
      <point x="540" y="62" type="curve" smooth="yes"/>
      <point x="528" y="62" type="line"/>
    </contour>
  </outline>
</glyph>
<glyph name="nine.lintab" format="2">
  <advance width="680"/>
  <outline>
    <contour>
      <point x="131" y="49" type="line"/>
      <point x="509" y="64"/>
      <point x="600.0" y="218"/>
      <point x="600" y="427" type="curve" smooth="yes"/>
      <point x="600" y="581"/>
      <point x="551" y="673.0"/>
      <point x="415" y="673" type="curve"/>
      <point x="291.0" y="673.0"/>
      <point x="232" y="599"/>
      <point x="232" y="489" type="curve" smooth="yes"/>
      <point x="232.0" y="397.0"/>
      <point x="275" y="330.0"/>
      <point x="375" y="330" type="curve"/>
      <point x="489.0" y="330.0"/>
      <point x="540" y="383"/>
      <point x="606" y="474" type="curve"/>
      <point x="609" y="425" type="line"/>
      <point x="559" y="340"/>
      <point x="492" y="268"/>
      <point x="349" y="268" type="curve"/>
      <point x="228.0" y="268.0"/>
      <point x="132.0" y="346"/>
      <point x="132" y="483" type="curve" smooth="yes"/>
      <point x="132" y="603"/>
      <point x="219" y="735"/>
      <point x="414" y="735" type="curve"/>
      <point x="625.0" y="735.0"/>
      <point x="698.0" y="596"/>
      <point x="698" y="427" type="curve" smooth="yes"/>
      <point x="698" y="166"/>
      <point x="543" y="-4"/>
      <point x="136" y="-15" type="curve"/>
    </contour>
  </outline>
</glyph>
<glyph name="nine.midprop" format="2">
  <advance width="712"/>
  <outline>
    <contour>
      <point x="121" y="-27" type="line"/>
      <point x="499" y="-12"/>
      <point x="610.0" y="142"/>
      <point x="610" y="351" type="curve" smooth="yes"/>
      <point x="610" y="505"/>
      <point x="541" y="597.0"/>
      <point x="405" y="597" type="curve"/>
      <point x="267.0" y="597.0"/>
      <point x="209" y="523"/>
      <point x="209" y="413" type="curve" smooth="yes"/>
      <point x="209.0" y="321.0"/>
      <point x="252" y="254.0"/>
      <point x="375" y="254" type="curve"/>
      <point x="479.0" y="254.0"/>
      <point x="550" y="307"/>
      <point x="616" y="398" type="curve"/>
      <point x="619" y="349" type="line"/>
      <point x="569" y="264"/>
      <point x="482" y="192"/>
      <point x="349" y="192" type="curve"/>
      <point x="205.0" y="192.0"/>
      <point x="109.0" y="270"/>
      <point x="109" y="407" type="curve" smooth="yes"/>
      <point x="109" y="527"/>
      <point x="195" y="659"/>
      <point x="404" y="659" type="curve"/>
      <point x="615.0" y="659.0"/>
      <point x="708.0" y="520"/>
      <point x="708" y="351" type="curve" smooth="yes"/>
      <point x="708" y="90"/>
      <point x="533" y="-80"/>
      <point x="126" y="-91" type="curve"/>
    </contour>
  </outline>
</glyph>
<glyph name="one.lintab" format="2">
  <advance width="680"/>
  <outline>
    <contour>
      <point x="422" y="98" type="curve" smooth="yes"/>
      <point x="520" y="710" type="line"/>
      <point x="455" y="710" type="line"/>
      <point x="407" y="643"/>
      <point x="337" y="622"/>
      <point x="184" y="621" type="curve"/>
      <point x="173" y="551" type="line"/>
      <point x="188" y="551"/>
      <point x="190" y="551"/>
      <point x="192" y="551" type="curve" smooth="yes"/>
      <point x="313" y="551"/>
      <point x="415" y="593"/>
      <point x="448" y="664" type="curve"/>
      <point x="420" y="647" type="line"/>
      <point x="332" y="98" type="line" smooth="yes"/>
      <point x="327" y="69"/>
      <point x="290" y="62"/>
      <point x="241" y="62" type="curve" smooth="yes"/>
      <point x="111" y="62" type="line"/>
      <point x="101" y="0" type="line"/>
      <point x="603" y="0" type="line"/>
      <point x="613" y="62" type="line"/>
      <point x="493" y="62" type="line" smooth="yes"/>
      <point x="439" y="62"/>
      <point x="418" y="74"/>
    </contour>
  </outline>
</glyph>
<glyph name="one.oldprop" format="2">
  <advance width="640"/>
  <guideline x="177" y="453" angle="81" identifier="8G8ZU5sQVh"/>
  <outline>
    <contour>
      <point x="421" y="98" type="curve" smooth="yes"/>
      <point x="500" y="598" type="line"/>
      <point x="437" y="598" type="line"/>
      <point x="386" y="517"/>
      <point x="306" y="495"/>
      <point x="166" y="492" type="curve"/>
      <point x="155" y="420" type="line"/>
      <point x="285" y="420"/>
      <point x="396" y="460"/>
      <point x="427" y="544" type="curve"/>
      <point x="420" y="547"/>
      <point x="412" y="530"/>
      <point x="401" y="530" type="curve"/>
      <point x="333" y="98" type="line" smooth="yes"/>
      <point x="328" y="69"/>
      <point x="291" y="62"/>
      <point x="241" y="62" type="curve" smooth="yes"/>
      <point x="122" y="62" type="line"/>
      <point x="112" y="0" type="line"/>
      <point x="593" y="0" type="line"/>
      <point x="603" y="62" type="line"/>
      <point x="500" y="62" type="line" smooth="yes"/>
      <point x="451" y="62"/>
      <point x="416" y="69"/>
    </contour>
  </outline>
</glyph>
<glyph name="parenleft.uc" format="2">
  <advance width="505"/>
  <outline>
    <contour>
      <point x="369" y="-80" type="curve"/>
      <point x="450" y="-80" type="line"/>
      <point x="451" y="-77" type="line"/>
      <point x="307" y="33"/>
      <point x="225.0" y="138"/>
      <point x="225" y="297" type="curve" smooth="yes"/>
      <point x="225.0" y="516.0"/>
      <point x="354" y="651"/>
      <point x="578" y="747" type="curve"/>
      <point x="580" y="750" type="line"/>
      <point x="488" y="750" type="line"/>
      <point x="295" y="681"/>
      <point x="129" y="526"/>
      <point x="129" y="299" type="curve" smooth="yes"/>
      <point x="129.0" y="142.0"/>
      <point x="211" y="23"/>
    </contour>
  </outline>
</glyph>
<glyph name="ring.uc" format="2">
  <advance width="292"/>
  <anchor x="263" y="740" name="_top"/>
  <outline>
    <contour>
      <point x="281" y="832" type="curve" smooth="yes"/>
      <point x="234" y="832"/>
      <point x="207" y="854"/>
      <point x="207" y="894" type="curve" smooth="yes"/>
      <point x="207" y="952"/>
      <point x="250" y="971"/>
      <point x="297" y="971" type="curve" smooth="yes"/>
      <point x="344" y="971"/>
      <point x="371" y="949"/>
      <point x="371" y="909" type="curve" smooth="yes"/>
      <point x="371" y="851"/>
      <point x="328" y="832"/>
    </contour>
    <contour>
      <point x="274" y="784" type="curve" smooth="yes"/>
      <point x="377" y="784"/>
      <point x="435" y="833"/>
      <point x="435" y="915" type="curve" smooth="yes"/>
      <point x="435" y="971"/>
      <point x="393" y="1019"/>
      <point x="304" y="1019" type="curve" smooth="yes"/>
      <point x="201" y="1019"/>
      <point x="143" y="970"/>
      <point x="143" y="888" type="curve" smooth="yes"/>
      <point x="143" y="832"/>
      <point x="185" y="784"/>
    </contour>
  </outline>
</glyph>
<glyph name="ruble.proportional" format="2">
  <advance width="754"/>
  <outline>
    <contour>
      <point x="120" y="400" type="line"/>
      <point x="506" y="400" type="line" smooth="yes"/>
      <point x="637" y="400"/>
      <point x="684" y="455"/>
      <point x="684" y="538" type="curve" smooth="yes"/>
      <point x="684.0" y="619.0"/>
      <point x="637.0" y="648.0"/>
      <point x="514" y="648" type="curve" smooth="yes"/>
      <point x="386" y="648" type="line"/>
      <point x="295" y="73" type="line" smooth="yes"/>
      <point x="294" y="66"/>
      <point x="346" y="62"/>
      <point x="386" y="62" type="curve" smooth="yes"/>
      <point x="420" y="62" type="line"/>
      <point x="410" y="0" type="line"/>
      <point x="73" y="0" type="line"/>
      <point x="83" y="62" type="line"/>
      <point x="118" y="62" type="line" smooth="yes"/>
      <point x="167.0" y="62.0"/>
      <point x="204" y="69"/>
      <point x="209" y="98" type="curve" smooth="yes"/>
      <point x="290" y="610" type="line" smooth="yes"/>
      <point x="295" y="641"/>
      <point x="263.0" y="648.0"/>
      <point x="195" y="648" type="curve" smooth="yes"/>
      <point x="182" y="648" type="line"/>
      <point x="191" y="710" type="line"/>
      <point x="505" y="710" type="line" smooth="yes"/>
      <point x="702.0" y="710.0"/>
      <point x="780" y="648"/>
      <point x="780" y="538" type="curve"/>
      <point x="780.0" y="410.0"/>
      <point x="683" y="348"/>
      <point x="507" y="348" type="curve" smooth="yes"/>
      <point x="112" y="348" type="line"/>
    </contour>
    <contour>
      <point x="578" y="179" type="line"/>
      <point x="84" y="179" type="line"/>
      <point x="92" y="231" type="line"/>
      <point x="586" y="231" type="line"/>
    </contour>
  </outline>
</glyph>
<glyph name="seven.linprop" format="2">
  <advance width="694"/>
  <outline>
    <contour>
      <point x="362" y="635" type="line" smooth="yes"/>
      <point x="258" y="635"/>
      <point x="232" y="629"/>
      <point x="221" y="593" type="curve" smooth="yes"/>
      <point x="191" y="492" type="line"/>
      <point x="129" y="492" type="line"/>
      <point x="164" y="710" type="line"/>
      <point x="740" y="710" type="line"/>
      <point x="728" y="634" type="line"/>
      <point x="505" y="466"/>
      <point x="415" y="327"/>
      <point x="347" y="0" type="curve"/>
      <point x="242" y="0" type="line"/>
      <point x="316" y="325"/>
      <point x="484" y="532"/>
      <point x="683" y="654" type="curve"/>
      <point x="687" y="635" type="line"/>
    </contour>
  </outline>
</glyph>
<glyph name="six.linprop" format="2">
  <advance width="712"/>
  <outline>
    <contour>
      <point x="691" y="671" type="line"/>
      <point x="337" y="656"/>
      <point x="210.0" y="502.0"/>
      <point x="210" y="293" type="curve" smooth="yes"/>
      <point x="210" y="139"/>
      <point x="275.0" y="47.0"/>
      <point x="413" y="47" type="curve" smooth="yes"/>
      <point x="555.0" y="47.0"/>
      <point x="614" y="121"/>
      <point x="614" y="231" type="curve" smooth="yes"/>
      <point x="614.0" y="323.0"/>
      <point x="571.0" y="390.0"/>
      <point x="454" y="390" type="curve" smooth="yes"/>
      <point x="337.0" y="390.0"/>
      <point x="277" y="337"/>
      <point x="204" y="246" type="curve"/>
      <point x="201" y="295" type="line"/>
      <point x="258" y="380"/>
      <point x="334" y="452"/>
      <point x="480" y="452" type="curve"/>
      <point x="618.0" y="452.0"/>
      <point x="714.0" y="374.0"/>
      <point x="714" y="237" type="curve" smooth="yes"/>
      <point x="714" y="117"/>
      <point x="627" y="-15"/>
      <point x="414" y="-15" type="curve" smooth="yes"/>
      <point x="201.0" y="-15.0"/>
      <point x="112.0" y="124.0"/>
      <point x="112" y="293" type="curve" smooth="yes"/>
      <point x="112" y="554"/>
      <point x="303" y="724"/>
      <point x="686" y="735" type="curve"/>
    </contour>
  </outline>
</glyph>
<glyph name="six.lintab" format="2">
  <advance width="680"/>
  <outline>
    <contour>
      <point x="675" y="671" type="line"/>
      <point x="297" y="656"/>
      <point x="206.0" y="502.0"/>
      <point x="206" y="293" type="curve" smooth="yes"/>
      <point x="206" y="139"/>
      <point x="255.0" y="47.0"/>
      <point x="391" y="47" type="curve"/>
      <point x="515.0" y="47.0"/>
      <point x="574" y="121"/>
      <point x="574" y="231" type="curve" smooth="yes"/>
      <point x="574.0" y="323.0"/>
      <point x="531.0" y="390.0"/>
      <point x="431" y="390" type="curve"/>
      <point x="317.0" y="390.0"/>
      <point x="266" y="337"/>
      <point x="200" y="246" type="curve"/>
      <point x="197" y="295" type="line"/>
      <point x="247" y="380"/>
      <point x="314" y="452"/>
      <point x="457" y="452" type="curve"/>
      <point x="578.0" y="452.0"/>
      <point x="674.0" y="374.0"/>
      <point x="674" y="237" type="curve" smooth="yes"/>
      <point x="674" y="117"/>
      <point x="587" y="-15"/>
      <point x="392" y="-15" type="curve"/>
      <point x="181.0" y="-15.0"/>
      <point x="108.0" y="124.0"/>
      <point x="108" y="293" type="curve" smooth="yes"/>
      <point x="108" y="554"/>
      <point x="263" y="724"/>
      <point x="670" y="735" type="curve"/>
    </contour>
  </outline>
</glyph>
<glyph name="six.midprop" format="2">
  <advance width="712"/>
  <outline>
    <contour>
      <point x="696" y="676" type="line"/>
      <point x="318" y="661"/>
      <point x="207.0" y="507.0"/>
      <point x="207" y="298" type="curve" smooth="yes"/>
      <point x="207" y="144"/>
      <point x="276.0" y="52.0"/>
      <point x="412" y="52" type="curve"/>
      <point x="550.0" y="52.0"/>
      <point x="608" y="126"/>
      <point x="608" y="236" type="curve" smooth="yes"/>
      <point x="608.0" y="328.0"/>
      <point x="565.0" y="395.0"/>
      <point x="442" y="395" type="curve"/>
      <point x="338.0" y="395.0"/>
      <point x="267" y="342"/>
      <point x="201" y="251" type="curve"/>
      <point x="198" y="300" type="line"/>
      <point x="248" y="385"/>
      <point x="335" y="457"/>
      <point x="468" y="457" type="curve"/>
      <point x="612.0" y="457.0"/>
      <point x="708.0" y="379.0"/>
      <point x="708" y="242" type="curve" smooth="yes"/>
      <point x="708" y="122"/>
      <point x="622" y="-10"/>
      <point x="413" y="-10" type="curve"/>
      <point x="202.0" y="-10.0"/>
      <point x="109.0" y="129.0"/>
      <point x="109" y="298" type="curve" smooth="yes"/>
      <point x="109" y="559"/>
      <point x="284" y="729"/>
      <point x="691" y="740" type="curve"/>
    </contour>
  </outline>
</glyph>
<glyph name="six.oldtab" format="2">
  <advance width="680"/>
  <outline>
    <contour>
      <point x="671" y="676" type="line"/>
      <point x="293" y="661"/>
      <point x="215.0" y="507.0"/>
      <point x="215" y="298" type="curve" smooth="yes"/>
      <point x="215" y="144"/>
      <point x="258.0" y="52.0"/>
      <point x="397" y="52" type="curve"/>
      <point x="519.0" y="52.0"/>
      <point x="583" y="126"/>
      <point x="583" y="236" type="curve" smooth="yes"/>
      <point x="583.0" y="328.0"/>
      <point x="534.0" y="395.0"/>
      <point x="426" y="395" type="curve"/>
      <point x="328.0" y="395.0"/>
      <point x="269" y="342"/>
      <point x="209" y="251" type="curve"/>
      <point x="206" y="300" type="line"/>
      <point x="251" y="385"/>
      <point x="317" y="457"/>
      <point x="454" y="457" type="curve"/>
      <point x="592.0" y="457.0"/>
      <point x="683.0" y="379.0"/>
      <point x="683" y="242" type="curve" smooth="yes"/>
      <point x="683" y="122"/>
      <point x="591" y="-10"/>
      <point x="400" y="-10" type="curve"/>
      <point x="184.0" y="-10.0"/>
      <point x="117.0" y="129.0"/>
      <point x="117" y="298" type="curve" smooth="yes"/>
      <point x="117" y="559"/>
      <point x="259" y="729"/>
      <point x="666" y="740" type="curve"/>
    </contour>
  </outline>
</glyph>
<glyph name="thai:baht.proportional" format="2">
  <advance width="831"/>
  <outline>
    <contour>
      <point x="494" y="790" type="line"/>
      <point x="477" y="679" type="line"/>
      <point x="486" y="663" type="line"/>
      <point x="388" y="43" type="line"/>
      <point x="374" y="33" type="line"/>
      <point x="352" y="-110" type="line"/>
      <point x="435" y="-110" type="line"/>
      <point x="458" y="35" type="line"/>
      <point x="451" y="47" type="line"/>
      <point x="549" y="665" type="line"/>
      <point x="558" y="676" type="line"/>
      <point x="576" y="790" type="line"/>
    </contour>
    <contour>
      <point x="547" y="378" type="line"/>
      <point x="725" y="378"/>
      <point x="802" y="461"/>
      <point x="802" y="565" type="curve" smooth="yes"/>
      <point x="802.0" y="662.0"/>
      <point x="732" y="710"/>
      <point x="586" y="710" type="curve" smooth="yes"/>
      <point x="167" y="710" type="line"/>
      <point x="158" y="648" type="line"/>
      <point x="169" y="648" type="line" smooth="yes"/>
      <point x="199.0" y="648.0"/>
      <point x="232" y="640"/>
      <point x="228" y="612" type="curve" smooth="yes"/>
      <point x="147" y="98" type="line" smooth="yes"/>
      <point x="142" y="69"/>
      <point x="105.0" y="62.0"/>
      <point x="76" y="62" type="curve" smooth="yes"/>
      <point x="65" y="62" type="line"/>
      <point x="56" y="0" type="line"/>
      <point x="486" y="0" type="line" smooth="yes"/>
      <point x="677" y="0"/>
      <point x="785" y="87"/>
      <point x="785" y="221" type="curve" smooth="yes"/>
      <point x="785.0" y="320.0"/>
      <point x="711" y="362"/>
      <point x="544" y="368" type="curve"/>
      <point x="612" y="352" type="line"/>
      <point x="618" y="391" type="line"/>
    </contour>
    <contour>
      <point x="285" y="402" type="line"/>
      <point x="324" y="648" type="line"/>
      <point x="564" y="648" type="line" smooth="yes"/>
      <point x="664.0" y="648.0"/>
      <point x="707" y="616"/>
      <point x="707" y="546" type="curve" smooth="yes"/>
      <point x="707.0" y="457.0"/>
      <point x="646.0" y="402.0"/>
      <point x="516" y="402" type="curve" smooth="yes"/>
    </contour>
    <contour>
      <point x="231" y="62" type="line"/>
      <point x="275" y="342" type="line"/>
      <point x="506" y="342" type="line" smooth="yes"/>
      <point x="633.0" y="342.0"/>
      <point x="690" y="303"/>
      <point x="690" y="221" type="curve" smooth="yes"/>
      <point x="690.0" y="136.0"/>
      <point x="634.0" y="62.0"/>
      <point x="483" y="62" type="curve" smooth="yes"/>
    </contour>
  </outline>
</glyph>
<glyph name="three.lintab" format="2">
  <advance width="680"/>
  <outline>
    <contour>
      <point x="357" y="-6" type="curve" smooth="yes"/>
      <point x="550" y="-6"/>
      <point x="657.0" y="72.0"/>
      <point x="657" y="209" type="curve" smooth="yes"/>
      <point x="657" y="317"/>
      <point x="572" y="376"/>
      <point x="395" y="378" type="curve"/>
      <point x="484" y="357" type="line"/>
      <point x="490" y="396" type="line"/>
      <point x="382" y="373" type="line"/>
      <point x="545" y="376"/>
      <point x="662.0" y="431.0"/>
      <point x="662" y="570" type="curve" smooth="yes"/>
      <point x="662" y="668"/>
      <point x="577.0" y="733.0"/>
      <point x="435" y="733" type="curve" smooth="yes"/>
      <point x="333" y="733"/>
      <point x="250" y="703"/>
      <point x="190" y="670" type="curve"/>
      <point x="168" y="527" type="line"/>
      <point x="258" y="527" type="line"/>
      <point x="281" y="676" type="line"/>
      <point x="247" y="672"/>
      <point x="228" y="627"/>
      <point x="232" y="613" type="curve"/>
      <point x="278" y="647"/>
      <point x="337" y="668"/>
      <point x="411" y="669" type="curve" smooth="yes"/>
      <point x="508" y="670"/>
      <point x="567.0" y="636.0"/>
      <point x="567" y="558" type="curve" smooth="yes"/>
      <point x="567" y="443"/>
      <point x="471.0" y="405.0"/>
      <point x="341" y="405" type="curve" smooth="yes"/>
      <point x="266" y="405" type="line"/>
      <point x="256" y="343" type="line"/>
      <point x="347" y="343" type="line" smooth="yes"/>
      <point x="481.0" y="343.0"/>
      <point x="563.0" y="309.0"/>
      <point x="563" y="209" type="curve" smooth="yes"/>
      <point x="563" y="103"/>
      <point x="487.0" y="58.0"/>
      <point x="375" y="58" type="curve"/>
      <point x="254" y="58"/>
      <point x="172" y="110"/>
      <point x="132" y="193" type="curve"/>
      <point x="58" y="154" type="line"/>
      <point x="96" y="55"/>
      <point x="216" y="-6"/>
    </contour>
  </outline>
</glyph>
<glyph name="three.midprop" format="2">
  <advance width="712"/>
  <outline>
    <contour>
      <point x="394" y="300" type="line"/>
      <point x="557" y="303"/>
      <point x="674.0" y="358.0"/>
      <point x="674" y="497" type="curve" smooth="yes"/>
      <point x="674" y="595"/>
      <point x="579.0" y="660.0"/>
      <point x="437" y="660" type="curve" smooth="yes"/>
      <point x="335" y="660"/>
      <point x="242" y="630"/>
      <point x="182" y="597" type="curve"/>
      <point x="160" y="454" type="line"/>
      <point x="250" y="454" type="line"/>
      <point x="273" y="603" type="line"/>
      <point x="239" y="599"/>
      <point x="220" y="554"/>
      <point x="224" y="540" type="curve"/>
      <point x="270" y="574"/>
      <point x="339" y="595"/>
      <point x="413" y="596" type="curve" smooth="yes"/>
      <point x="510" y="597"/>
      <point x="579.0" y="563.0"/>
      <point x="579" y="481" type="curve" smooth="yes"/>
      <point x="579.0" y="370.0"/>
      <point x="483.0" y="332.0"/>
      <point x="353" y="332" type="curve" smooth="yes"/>
      <point x="245" y="332" type="line"/>
      <point x="235" y="270" type="line"/>
      <point x="359" y="270" type="line" smooth="yes"/>
      <point x="493.0" y="270.0"/>
      <point x="575.0" y="236.0"/>
      <point x="575" y="136" type="curve" smooth="yes"/>
      <point x="575" y="30"/>
      <point x="489.0" y="-15.0"/>
      <point x="377" y="-15" type="curve"/>
      <point x="256" y="-15"/>
      <point x="164" y="37"/>
      <point x="124" y="120" type="curve"/>
      <point x="50" y="81" type="line"/>
      <point x="88" y="-18"/>
      <point x="218" y="-79"/>
      <point x="359" y="-79" type="curve" smooth="yes"/>
      <point x="552" y="-79"/>
      <point x="669.0" y="-1.0"/>
      <point x="669" y="136" type="curve" smooth="yes"/>
      <point x="669" y="244"/>
      <point x="584" y="303"/>
      <point x="407" y="305" type="curve"/>
      <point x="496" y="284" type="line"/>
      <point x="502" y="323" type="line"/>
    </contour>
  </outline>
</glyph>
<glyph name="three.oldprop" format="2">
  <advance width="712"/>
  <outline>
    <contour>
      <point x="389" y="256" type="line"/>
      <point x="552" y="259"/>
      <point x="669.0" y="308.0"/>
      <point x="669" y="447" type="curve" smooth="yes"/>
      <point x="669" y="545"/>
      <point x="574.0" y="608.0"/>
      <point x="432" y="608" type="curve" smooth="yes"/>
      <point x="330" y="608"/>
      <point x="237" y="578"/>
      <point x="177" y="545" type="curve"/>
      <point x="155" y="402" type="line"/>
      <point x="245" y="402" type="line"/>
      <point x="268" y="551" type="line"/>
      <point x="234" y="547"/>
      <point x="215" y="502"/>
      <point x="219" y="488" type="curve"/>
      <point x="265" y="522"/>
      <point x="334" y="543"/>
      <point x="408" y="544" type="curve" smooth="yes"/>
      <point x="505" y="545"/>
      <point x="574.0" y="513.0"/>
      <point x="574" y="431" type="curve" smooth="yes"/>
      <point x="574.0" y="320.0"/>
      <point x="478" y="288"/>
      <point x="348" y="288" type="curve" smooth="yes"/>
      <point x="240" y="288" type="line"/>
      <point x="230" y="226" type="line"/>
      <point x="354" y="226" type="line" smooth="yes"/>
      <point x="488" y="226"/>
      <point x="570.0" y="186.0"/>
      <point x="570" y="86" type="curve" smooth="yes"/>
      <point x="570" y="-20"/>
      <point x="484.0" y="-67.0"/>
      <point x="372" y="-67" type="curve"/>
      <point x="251" y="-67"/>
      <point x="159" y="-15"/>
      <point x="119" y="68" type="curve"/>
      <point x="45" y="29" type="line"/>
      <point x="83" y="-70"/>
      <point x="213" y="-131"/>
      <point x="354" y="-131" type="curve" smooth="yes"/>
      <point x="547" y="-131"/>
      <point x="664.0" y="-51.0"/>
      <point x="664" y="86" type="curve" smooth="yes"/>
      <point x="664" y="194"/>
      <point x="579" y="259"/>
      <point x="402" y="261" type="curve"/>
      <point x="491" y="240" type="line"/>
      <point x="497" y="279" type="line"/>
    </contour>
  </outline>
</glyph>
<glyph name="two.lintab" format="2">
  <advance width="680"/>
  <outline>
    <contour>
      <point x="409" y="62" type="line" smooth="yes"/>
      <point x="509.0" y="62.0"/>
      <point x="550" y="69"/>
      <point x="560" y="103" type="curve" smooth="yes"/>
      <point x="588" y="202" type="line"/>
      <point x="657" y="202" type="line"/>
      <point x="625" y="0" type="line"/>
      <point x="38" y="0" type="line"/>
      <point x="51" y="83" type="line"/>
      <point x="400" y="289"/>
      <point x="563" y="352"/>
      <point x="563" y="532" type="curve" smooth="yes"/>
      <point x="563.0" y="623.0"/>
      <point x="511" y="671.0"/>
      <point x="388" y="671" type="curve" smooth="yes"/>
      <point x="299" y="671"/>
      <point x="238" y="645"/>
      <point x="201" y="617" type="curve"/>
      <point x="205" y="641"/>
      <point x="217.0" y="670.0"/>
      <point x="246" y="661" type="curve"/>
      <point x="224" y="522" type="line"/>
      <point x="134" y="522" type="line"/>
      <point x="158" y="675" type="line"/>
      <point x="196" y="699"/>
      <point x="283" y="735"/>
      <point x="393" y="735" type="curve" smooth="yes"/>
      <point x="569" y="735.0"/>
      <point x="663.0" y="660"/>
      <point x="663" y="537" type="curve" smooth="yes"/>
      <point x="663" y="325"/>
      <point x="427" y="222"/>
      <point x="86" y="39" type="curve"/>
      <point x="82" y="62" type="line"/>
    </contour>
  </outline>
</glyph>
<glyph name="two.midprop" format="2">
  <advance width="709"/>
  <outline>
    <contour>
      <point x="475" y="64" type="line" smooth="yes"/>
      <point x="567.0" y="64.0"/>
      <point x="587" y="70"/>
      <point x="598" y="107" type="curve" smooth="yes"/>
      <point x="626" y="197" type="line"/>
      <point x="685" y="197" type="line"/>
      <point x="654" y="0" type="line"/>
      <point x="76" y="0" type="line"/>
      <point x="87" y="72" type="line"/>
      <point x="438" y="263"/>
      <point x="590" y="309"/>
      <point x="590" y="457" type="curve"/>
      <point x="590" y="538"/>
      <point x="538" y="585"/>
      <point x="428" y="585" type="curve" smooth="yes"/>
      <point x="366.0" y="585.0"/>
      <point x="291" y="570"/>
      <point x="238" y="548" type="curve"/>
      <point x="244" y="567"/>
      <point x="271" y="609"/>
      <point x="269" y="596" type="curve" smooth="yes"/>
      <point x="245" y="441" type="line"/>
      <point x="155" y="441" type="line"/>
      <point x="179" y="596" type="line"/>
      <point x="248" y="622"/>
      <point x="332" y="649"/>
      <point x="445" y="649" type="curve" smooth="yes"/>
      <point x="620.0" y="649.0"/>
      <point x="686" y="563"/>
      <point x="686" y="471" type="curve"/>
      <point x="686" y="278"/>
      <point x="482" y="220"/>
      <point x="119" y="31" type="curve"/>
      <point x="110" y="34"/>
      <point x="102" y="53"/>
      <point x="100" y="64" type="curve"/>
    </contour>
  </outline>
</glyph>
<glyph name="two.oldprop" format="2">
  <advance width="720"/>
  <outline>
    <contour>
      <point x="703" y="65" type="line"/>
      <point x="138" y="65" type="line"/>
      <point x="140" y="44" type="line"/>
      <point x="451" y="181"/>
      <point x="686" y="256"/>
      <point x="686" y="429" type="curve" smooth="yes"/>
      <point x="686.0" y="549.0"/>
      <point x="589" y="608.0"/>
      <point x="430" y="608" type="curve" smooth="yes"/>
      <point x="316.0" y="608.0"/>
      <point x="220" y="572"/>
      <point x="177" y="547" type="curve"/>
      <point x="153" y="398" type="line"/>
      <point x="243" y="398" type="line"/>
      <point x="267" y="538" type="line"/>
      <point x="266" y="541"/>
      <point x="273" y="543"/>
      <point x="269" y="543" type="curve" smooth="yes"/>
      <point x="254" y="543"/>
      <point x="227" y="513"/>
      <point x="220" y="495" type="curve"/>
      <point x="262" y="522"/>
      <point x="325" y="546"/>
      <point x="421" y="546" type="curve" smooth="yes"/>
      <point x="531.0" y="546.0"/>
      <point x="585.0" y="498"/>
      <point x="585" y="423" type="curve" smooth="yes"/>
      <point x="585.0" y="285.0"/>
      <point x="448" y="238"/>
      <point x="103" y="83" type="curve"/>
      <point x="90" y="0" type="line"/>
      <point x="695" y="0" type="line"/>
    </contour>
  </outline>
</glyph>
<glyph name="yen.proportional" format="2">
  <advance width="782"/>
  <guideline x="139" y="632" angle="81" identifier="JvytOAuMrZ"/>
  <outline>
    <contour>
      <point x="110" y="216" type="line"/>
      <point x="102" y="164" type="line"/>
      <point x="735" y="164" type="line"/>
      <point x="743" y="216" type="line"/>
    </contour>
    <contour>
      <point x="137" y="383" type="line"/>
      <point x="129" y="331" type="line"/>
      <point x="762" y="331" type="line"/>
      <point x="770" y="383" type="line"/>
    </contour>
    <contour>
      <point x="483" y="331" type="line"/>
      <point x="747" y="607" type="line" smooth="yes"/>
      <point x="778" y="639"/>
      <point x="800" y="648"/>
      <point x="832" y="648" type="curve" smooth="yes"/>
      <point x="844" y="648" type="line"/>
      <point x="853" y="710" type="line"/>
      <point x="618" y="710" type="line"/>
      <point x="609" y="648" type="line"/>
      <point x="616" y="648" type="line" smooth="yes"/>
      <point x="655" y="648"/>
      <point x="685.0" y="642.0"/>
      <point x="685" y="629" type="curve"/>
      <point x="444" y="367" type="line"/>
      <point x="472" y="369" type="line"/>
      <point x="304" y="637" type="line"/>
      <point x="305" y="644"/>
      <point x="335" y="648"/>
      <point x="371" y="648" type="curve" smooth="yes"/>
      <point x="387" y="648" type="line"/>
      <point x="396" y="710" type="line"/>
      <point x="151" y="710" type="line"/>
      <point x="142" y="648" type="line"/>
      <point x="152" y="648" type="line" smooth="yes"/>
      <point x="190" y="648"/>
      <point x="206" y="645"/>
      <point x="222" y="620" type="curve" smooth="yes"/>
      <point x="406" y="332" type="line"/>
    </contour>
    <contour>
      <point x="498" y="378" type="line"/>
      <point x="409" y="378" type="line"/>
      <point x="363" y="98" type="line" smooth="yes"/>
      <point x="358" y="69"/>
      <point x="317" y="62"/>
      <point x="255" y="62" type="curve" smooth="yes"/>
      <point x="219" y="62" type="line"/>
      <point x="209" y="0" type="line"/>
      <point x="576" y="0" type="line"/>
      <point x="586" y="62" type="line"/>
      <point x="541" y="62" type="line" smooth="yes"/>
      <point x="479" y="62"/>
      <point x="448" y="71"/>
      <point x="452" y="98" type="curve" smooth="yes"/>
    </contour>
  </outline>
</glyph>
<glyph name="zero.linprop" format="2">
  <advance width="750"/>
  <outline>
    <contour>
      <point x="741" y="418" type="curve" smooth="yes"/>
      <point x="741.0" y="600.0706908460456"/>
      <point x="661" y="735.0"/>
      <point x="453" y="735" type="curve" smooth="yes"/>
      <point x="220" y="735"/>
      <point x="111" y="518"/>
      <point x="111" y="308" type="curve" smooth="yes"/>
      <point x="111.0" y="125.92930915395434"/>
      <point x="197" y="-11.0"/>
      <point x="400" y="-11" type="curve" smooth="yes"/>
      <point x="632" y="-11"/>
      <point x="741" y="207"/>
    </contour>
    <contour>
      <point x="396" y="51" type="curve" smooth="yes"/>
      <point x="281" y="51.0"/>
      <point x="209.0" y="128"/>
      <point x="209" y="283" type="curve" smooth="yes"/>
      <point x="209.0" y="444.0"/>
      <point x="265" y="673"/>
      <point x="456" y="673" type="curve" smooth="yes"/>
      <point x="585" y="673.0"/>
      <point x="644.0" y="578"/>
      <point x="644" y="444" type="curve" smooth="yes"/>
      <point x="644.0" y="286.0"/>
      <point x="587" y="51"/>
    </contour>
  </outline>
</glyph>
<glyph name="zero.midprop" format="2">
  <advance width="741"/>
  <outline>
    <contour>
      <point x="404" y="-11" type="curve" smooth="yes"/>
      <point x="632" y="-11"/>
      <point x="733" y="188"/>
      <point x="733" y="369" type="curve" smooth="yes"/>
      <point x="733.0" y="539"/>
      <point x="640" y="660.0"/>
      <point x="448" y="660" type="curve" smooth="yes"/>
      <point x="219" y="660"/>
      <point x="118" y="461"/>
      <point x="118" y="280" type="curve" smooth="yes"/>
      <point x="118.0" y="110"/>
      <point x="212" y="-11.0"/>
    </contour>
    <contour>
      <point x="394" y="51" type="curve"/>
      <point x="274" y="51.0"/>
      <point x="217" y="124"/>
      <point x="217" y="259" type="curve" smooth="yes"/>
      <point x="217" y="456"/>
      <point x="292" y="598.0"/>
      <point x="457" y="598" type="curve"/>
      <point x="577" y="598.0"/>
      <point x="635" y="524"/>
      <point x="635" y="390" type="curve" smooth="yes"/>
      <point x="635" y="197"/>
      <point x="561" y="51.0"/>
    </contour>
  </outline>
</glyph>
<glyph name="zero.propslash" format="2">
  <advance width="742"/>
  <outline>
    <contour>
      <point x="195" y="121" type="line"/>
      <point x="679" y="455" type="line"/>
      <point x="661" y="515" type="line"/>
      <point x="177" y="184" type="line"/>
    </contour>
    <contour>
      <point x="375" y="-11" type="curve" smooth="yes"/>
      <point x="549" y="-11"/>
      <point x="727" y="102"/>
      <point x="727" y="384" type="curve" smooth="yes"/>
      <point x="727" y="559"/>
      <point x="614" y="649"/>
      <point x="469" y="649" type="curve"/>
      <point x="295" y="649"/>
      <point x="117" y="536"/>
      <point x="117" y="254" type="curve" smooth="yes"/>
      <point x="117" y="79"/>
      <point x="231" y="-11"/>
    </contour>
    <contour>
      <point x="390" y="53" type="curve"/>
      <point x="276" y="53.0"/>
      <point x="211.0" y="117"/>
      <point x="211" y="264" type="curve" smooth="yes"/>
      <point x="211" y="503"/>
      <point x="333" y="585"/>
      <point x="454" y="585" type="curve"/>
      <point x="571" y="585.0"/>
      <point x="633.0" y="519"/>
      <point x="633" y="374" type="curve" smooth="yes"/>
      <point x="633" y="135"/>
      <point x="511" y="53"/>
    </contour>
  </outline>
</glyph>
<glyph name="zero.slashlinprop" format="2">
  <advance width="761"/>
  <outline>
    <contour>
      <point x="216" y="173" type="line"/>
      <point x="689" y="499" type="line"/>
      <point x="670" y="559" type="line"/>
      <point x="194" y="233" type="line"/>
    </contour>
    <contour>
      <point x="753" y="418" type="curve" smooth="yes"/>
      <point x="753.0" y="600"/>
      <point x="673" y="735.0"/>
      <point x="465" y="735" type="curve" smooth="yes"/>
      <point x="232" y="735"/>
      <point x="123" y="518"/>
      <point x="123" y="308" type="curve" smooth="yes"/>
      <point x="123.0" y="126"/>
      <point x="209" y="-11.0"/>
      <point x="412" y="-11" type="curve" smooth="yes"/>
      <point x="644" y="-11"/>
      <point x="753" y="207"/>
    </contour>
    <contour>
      <point x="408" y="51" type="curve" smooth="yes"/>
      <point x="293" y="51.0"/>
      <point x="221.0" y="128"/>
      <point x="221" y="283" type="curve" smooth="yes"/>
      <point x="221.0" y="444.0"/>
      <point x="277" y="673"/>
      <point x="468" y="673" type="curve" smooth="yes"/>
      <point x="597" y="673.0"/>
      <point x="656.0" y="578"/>
      <point x="656" y="444" type="curve" smooth="yes"/>
      <point x="656.0" y="286.0"/>
      <point x="599" y="51"/>
    </contour>
  </outline>
</glyph>
<glyph name="zero.slashlintab" format="2">
  <advance width="680"/>
  <outline>
    <contour>
      <point x="372" y="-11" type="curve" smooth="yes"/>
      <point x="604" y="-11"/>
      <point x="688" y="207"/>
      <point x="688" y="418" type="curve" smooth="yes"/>
      <point x="688.0" y="600"/>
      <point x="623" y="735.0"/>
      <point x="425" y="735" type="curve" smooth="yes"/>
      <point x="192" y="735"/>
      <point x="108" y="518"/>
      <point x="108" y="308" type="curve" smooth="yes"/>
      <point x="108.0" y="126"/>
      <point x="179" y="-11.0"/>
    </contour>
    <contour>
      <point x="374" y="51" type="curve"/>
      <point x="263" y="51.0"/>
      <point x="206.0" y="128"/>
      <point x="206" y="293" type="curve"/>
      <point x="206" y="454"/>
      <point x="237" y="673"/>
      <point x="428" y="673" type="curve" smooth="yes"/>
      <point x="547" y="673.0"/>
      <point x="591.0" y="578"/>
      <point x="591" y="434" type="curve"/>
      <point x="591" y="276"/>
      <point x="559" y="51"/>
    </contour>
    <contour>
      <point x="185" y="182" type="line"/>
      <point x="635" y="491" type="line"/>
      <point x="616" y="542" type="line"/>
      <point x="163" y="231" type="line"/>
    </contour>
  </outline>
</glyph>
<glyph name="zero.slashold" format="2">
  <advance width="680"/>
  <outline>
    <contour>
      <point x="372" y="-11" type="curve" smooth="yes"/>
      <point x="578" y="-11"/>
      <point x="670" y="160"/>
      <point x="670" y="326" type="curve" smooth="yes"/>
      <point x="670.0" y="489"/>
      <point x="591" y="608.0"/>
      <point x="404" y="608" type="curve" smooth="yes"/>
      <point x="198" y="608"/>
      <point x="105" y="437"/>
      <point x="105" y="271" type="curve" smooth="yes"/>
      <point x="105.0" y="100"/>
      <point x="184" y="-11.0"/>
    </contour>
    <contour>
      <point x="173" y="114" type="line"/>
      <point x="623" y="424" type="line"/>
      <point x="604" y="484" type="line"/>
      <point x="150" y="174" type="line"/>
    </contour>
    <contour>
      <point x="367" y="42" type="curve" smooth="yes"/>
      <point x="253.0" y="42"/>
      <point x="204" y="130"/>
      <point x="204" y="250" type="curve" smooth="yes"/>
      <point x="204.0" y="406"/>
      <point x="260" y="555"/>
      <point x="407" y="555" type="curve" smooth="yes"/>
      <point x="519.0" y="555.0"/>
      <point x="571" y="475"/>
      <point x="571" y="349" type="curve" smooth="yes"/>
      <point x="571.0" y="187"/>
      <point x="515" y="42"/>
    </contour>
  </outline>
</glyph>
